<svg width="37" height="37" viewBox="0 0 37 37" fill="none" xmlns="http://www.w3.org/2000/svg">
<path d="M12.3878 17.0418C11.6556 17.0443 10.9363 17.2352 10.2992 17.5962C11.1962 15.2744 12.6839 13.2272 14.615 11.657C14.7255 11.566 14.817 11.4541 14.8843 11.3277C14.9515 11.2014 14.9932 11.063 15.007 10.9206C15.0208 10.7781 15.0064 10.6343 14.9646 10.4974C14.9228 10.3605 14.8545 10.2332 14.7635 10.1227C14.6725 10.0122 14.5607 9.92068 14.4343 9.85342C14.3079 9.78616 14.1696 9.74444 14.0271 9.73065C13.8846 9.71687 13.7408 9.73128 13.6039 9.77306C13.467 9.81484 13.3397 9.88318 13.2292 9.97418C9.26975 13.1912 7.50778 17.6457 7.50778 20.4074C7.5146 21.3839 7.8056 22.3373 8.34525 23.1511C8.88489 23.965 9.64984 24.6041 10.5467 24.9905C11.1271 25.2716 11.7627 25.4204 12.4076 25.426C12.9753 25.4536 13.5426 25.3656 14.0752 25.1674C14.6079 24.9692 15.0947 24.6649 15.5062 24.2729C15.9177 23.8809 16.2453 23.4094 16.4692 22.887C16.693 22.3646 16.8084 21.8022 16.8084 21.2339C16.8084 20.6656 16.693 20.1032 16.4692 19.5808C16.2453 19.0584 15.9177 18.587 15.5062 18.195C15.0947 17.803 14.6079 17.4987 14.0752 17.3004C13.5426 17.1022 12.9753 17.0142 12.4076 17.0418H12.3878Z" fill="#FFBE0B"/>
<path d="M23.4154 17.0416C22.683 17.0432 21.9635 17.2341 21.3267 17.5959C22.2233 15.2766 23.7071 13.2301 25.6327 11.6567C25.7532 11.5699 25.8546 11.4592 25.9308 11.3317C26.007 11.2041 26.0563 11.0623 26.0756 10.915C26.0949 10.7677 26.0839 10.618 26.0432 10.4751C26.0025 10.3322 25.933 10.1992 25.8389 10.0842C25.7449 9.96918 25.6283 9.87462 25.4963 9.80635C25.3644 9.73808 25.2199 9.69753 25.0716 9.6872C24.9234 9.67688 24.7747 9.69699 24.6345 9.7463C24.4944 9.79562 24.3658 9.87309 24.2567 9.97395C20.2973 13.191 18.5353 17.6454 18.5353 20.4072C18.54 21.3726 18.8225 22.3163 19.3491 23.1255C19.8757 23.9347 20.6241 24.5752 21.5049 24.9704C22.1 25.2598 22.7536 25.4088 23.4154 25.406C23.983 25.4336 24.5503 25.3456 25.083 25.1474C25.6156 24.9492 26.1024 24.6448 26.5139 24.2528C26.9254 23.8609 27.253 23.3894 27.4769 22.867C27.7007 22.3446 27.8162 21.7822 27.8162 21.2139C27.8162 20.6456 27.7007 20.0832 27.4769 19.5608C27.253 19.0384 26.9254 18.5669 26.5139 18.175C26.1024 17.783 25.6156 17.4786 25.083 17.2804C24.5503 17.0822 23.983 16.9942 23.4154 17.0218V17.0416Z" fill="#FFBE0B"/>
</svg>
