<svg width="37" height="37" viewBox="0 0 37 37" fill="none" xmlns="http://www.w3.org/2000/svg">
<path d="M12.7004 17.0418C11.9681 17.0443 11.2488 17.2352 10.6117 17.5962C11.5087 15.2744 12.9964 13.2272 14.9276 11.657C15.0381 11.566 15.1295 11.4541 15.1968 11.3277C15.2641 11.2014 15.3058 11.063 15.3196 10.9206C15.3334 10.7781 15.3189 10.6343 15.2772 10.4974C15.2354 10.3605 15.167 10.2332 15.076 10.1227C14.985 10.0122 14.8732 9.92068 14.7468 9.85342C14.6205 9.78616 14.4821 9.74444 14.3396 9.73065C14.1972 9.71687 14.0534 9.73128 13.9165 9.77306C13.7796 9.81484 13.6522 9.88318 13.5417 9.97418C9.58228 13.1912 7.82031 17.6457 7.82031 20.4074C7.82713 21.3839 8.11813 22.3373 8.65778 23.1511C9.19743 23.965 9.96237 24.6041 10.8592 24.9905C11.4396 25.2716 12.0752 25.4204 12.7202 25.426C13.2878 25.4536 13.8551 25.3656 14.3878 25.1674C14.9204 24.9692 15.4072 24.6649 15.8187 24.2729C16.2302 23.8809 16.5578 23.4094 16.7817 22.887C17.0055 22.3646 17.121 21.8022 17.121 21.2339C17.121 20.6656 17.0055 20.1032 16.7817 19.5808C16.5578 19.0584 16.2302 18.587 15.8187 18.195C15.4072 17.803 14.9204 17.4987 14.3878 17.3004C13.8551 17.1022 13.2878 17.0142 12.7202 17.0418H12.7004Z" fill="#FF008A"/>
<path d="M23.7279 17.0416C22.9955 17.0432 22.276 17.2341 21.6393 17.5959C22.5359 15.2766 24.0196 13.2301 25.9452 11.6567C26.0657 11.5699 26.1672 11.4592 26.2434 11.3317C26.3195 11.2041 26.3688 11.0623 26.3881 10.915C26.4074 10.7677 26.3964 10.618 26.3557 10.4751C26.315 10.3322 26.2455 10.1992 26.1514 10.0842C26.0574 9.96918 25.9408 9.87462 25.8089 9.80635C25.6769 9.73808 25.5324 9.69753 25.3842 9.6872C25.236 9.67688 25.0872 9.69699 24.9471 9.7463C24.8069 9.79562 24.6784 9.87309 24.5693 9.97395C20.6098 13.191 18.8478 17.6454 18.8478 20.4072C18.8525 21.3726 19.135 22.3163 19.6616 23.1255C20.1882 23.9347 20.9366 24.5752 21.8174 24.9704C22.4126 25.2598 23.0661 25.4088 23.7279 25.406C24.2955 25.4336 24.8629 25.3456 25.3955 25.1474C25.9281 24.9492 26.415 24.6448 26.8265 24.2528C27.238 23.8609 27.5656 23.3894 27.7894 22.867C28.0133 22.3446 28.1287 21.7822 28.1287 21.2139C28.1287 20.6456 28.0133 20.0832 27.7894 19.5608C27.5656 19.0384 27.238 18.5669 26.8265 18.175C26.415 17.783 25.9281 17.4786 25.3955 17.2804C24.8629 17.0822 24.2955 16.9942 23.7279 17.0218V17.0416Z" fill="#FF008A"/>
</svg>
