<svg width="40" height="40" viewBox="0 0 40 40" fill="none" xmlns="http://www.w3.org/2000/svg">
<rect width="40" height="40" rx="20" fill="#063846"/>
<g clip-path="url(#clip0_1_111)">
<path d="M23.2188 23.0703C23.2708 23.1224 23.2969 23.1823 23.2969 23.25C23.2969 23.3177 23.2708 23.3776 23.2188 23.4297L22.8281 23.8203C22.776 23.8724 22.7161 23.8984 22.6484 23.8984C22.5807 23.8984 22.5208 23.8724 22.4688 23.8203L19.3984 20.75L16.3281 23.8203C16.276 23.8724 16.2161 23.8984 16.1484 23.8984C16.0807 23.8984 16.0208 23.8724 15.9688 23.8203L15.5781 23.4297C15.526 23.3776 15.5 23.3177 15.5 23.25C15.5 23.1823 15.526 23.1224 15.5781 23.0703L19.2188 19.4297C19.2708 19.3776 19.3307 19.3516 19.3984 19.3516C19.4661 19.3516 19.526 19.3776 19.5781 19.4297L23.2188 23.0703ZM23.2188 20.0703C23.2708 20.1224 23.2969 20.1823 23.2969 20.25C23.2969 20.3177 23.2708 20.3776 23.2188 20.4297L22.8281 20.8203C22.776 20.8724 22.7161 20.8984 22.6484 20.8984C22.5807 20.8984 22.5208 20.8724 22.4688 20.8203L19.3984 17.75L16.3281 20.8203C16.276 20.8724 16.2161 20.8984 16.1484 20.8984C16.0807 20.8984 16.0208 20.8724 15.9688 20.8203L15.5781 20.4297C15.526 20.3776 15.5 20.3177 15.5 20.25C15.5 20.1823 15.526 20.1224 15.5781 20.0703L19.2188 16.4297C19.2708 16.3776 19.3307 16.3516 19.3984 16.3516C19.4661 16.3516 19.526 16.3776 19.5781 16.4297L23.2188 20.0703Z" fill="white"/>
</g>
<defs>
<clipPath id="clip0_1_111">
<rect width="9" height="14" fill="white" transform="matrix(1 0 0 -1 15.5 27)"/>
</clipPath>
</defs>
</svg>
