<svg width="28" height="28" viewBox="0 0 28 28" fill="none" xmlns="http://www.w3.org/2000/svg">
<g clip-path="url(#clip0_1_213)">
<path d="M14.0216 27.6759C12.1935 27.6759 10.4116 27.3288 8.74553 26.6115C7.93561 26.2644 7.17198 25.8478 6.45462 25.3619C5.73727 24.8759 5.06619 24.3206 4.4414 23.7189C3.83975 23.1173 3.26123 22.423 2.79842 21.7057C2.31247 20.9883 1.89595 20.2016 1.54884 19.4148C0.854623 17.7487 0.484375 15.9669 0.484375 14.1388C0.484375 12.3107 0.831482 10.5288 1.54884 8.86272C1.89595 8.0528 2.31247 7.28917 2.79842 6.57181C3.28437 5.85445 3.83975 5.18338 4.4414 4.55859C5.04305 3.95693 5.73727 3.37842 6.45462 2.91561C7.17198 2.42966 7.95875 2.01313 8.74553 1.66603C10.4116 0.97181 12.1935 0.601562 14.0216 0.601562C15.8497 0.601562 17.6315 0.94867 19.2976 1.66603C20.1075 2.01313 20.8712 2.42966 21.5885 2.91561C22.3059 3.40156 22.9769 3.95693 23.6017 4.55859C24.2034 5.16024 24.7819 5.85445 25.2447 6.57181C25.7307 7.28917 26.1472 8.07594 26.4943 8.86272C27.1885 10.5288 27.5588 12.3107 27.5588 14.1388C27.5588 15.9669 27.2116 17.7487 26.4943 19.4148C26.1472 20.2247 25.7307 20.9883 25.2447 21.7057C24.7588 22.423 24.2034 23.0941 23.6017 23.7189C23.0001 24.3206 22.3059 24.8991 21.5885 25.3619C20.8712 25.8478 20.0844 26.2644 19.2976 26.6115C17.6083 27.3057 15.8497 27.6759 14.0216 27.6759Z" fill="#063846"/>
<path d="M14.0234 1.06429C12.2648 1.06429 10.5524 1.4114 8.93253 2.08247C8.16889 2.40644 7.40526 2.82297 6.71104 3.28578C6.01683 3.74859 5.36889 4.28082 4.76724 4.88247C4.16559 5.48413 3.63335 6.13206 3.17054 6.82628C2.70773 7.52049 2.29121 8.26099 1.96724 9.04776C1.29616 10.6676 0.949057 12.38 0.949057 14.1387C0.949057 15.8973 1.29616 17.6097 1.96724 19.2296C2.29121 19.9932 2.70773 20.7569 3.17054 21.4511C3.63335 22.1453 4.16559 22.7932 4.76724 23.3949C5.36889 23.9965 6.01683 24.5288 6.71104 24.9916C7.40526 25.4544 8.14575 25.8709 8.93253 26.1949C10.5524 26.8659 12.2648 27.2131 14.0234 27.2131C15.7821 27.2131 17.4945 26.8659 19.1143 26.1949C19.878 25.8709 20.6416 25.4544 21.3358 24.9916C22.03 24.5288 22.678 23.9965 23.2796 23.3949C23.8813 22.7932 24.4135 22.1453 24.8763 21.4511C25.3391 20.7569 25.7557 20.0164 26.0796 19.2296C26.7507 17.6097 27.0978 15.8973 27.0978 14.1387C27.0978 12.38 26.7507 10.6676 26.0796 9.04776C25.7557 8.28413 25.3391 7.52049 24.8763 6.82628C24.4135 6.13206 23.8813 5.48413 23.2796 4.88247C22.678 4.28082 22.03 3.74859 21.3358 3.28578C20.6416 2.82297 19.9011 2.40644 19.1143 2.08247C17.4945 1.4114 15.7821 1.06429 14.0234 1.06429ZM14.0234 0.138672C21.7524 0.138672 28.0234 6.40975 28.0234 14.1387C28.0234 21.8676 21.7524 28.1387 14.0234 28.1387C6.29451 28.1387 0.0234375 21.8676 0.0234375 14.1387C0.0234375 6.40975 6.27137 0.138672 14.0234 0.138672Z" fill="#063846"/>
<path d="M19.1153 9.2793C19.7632 9.2793 20.2954 9.81152 20.2954 10.4595C20.2954 10.8297 20.1103 11.1768 19.8326 11.4082L14.4872 15.4115C14.2095 15.6198 13.8161 15.6198 13.5384 15.4115L8.19298 11.4082C7.89215 11.1768 7.73017 10.8297 7.73017 10.4595C7.73017 9.81152 8.26239 9.2793 8.91033 9.2793H19.1153ZM13.0525 16.0363C13.6079 16.4529 14.3715 16.4529 14.95 16.0363L20.2954 12.033V17.1471C20.2954 18.0033 19.6012 18.7206 18.7219 18.7206H9.28057C8.40123 18.7206 7.70703 18.0264 7.70703 17.1471V12.033L13.0525 16.0363Z" fill="white"/>
</g>
<defs>
<clipPath id="clip0_1_213">
<rect width="28" height="28" fill="white"/>
</clipPath>
</defs>
</svg>
