<svg width="31" height="30" viewBox="0 0 31 30" fill="none" xmlns="http://www.w3.org/2000/svg">
<rect x="0.0585938" width="30" height="30" rx="15" fill="#063846"/>
<g clip-path="url(#clip0_1_124)">
<path d="M22.0586 13.5469V19.75C22.0586 20.0938 21.9362 20.388 21.6914 20.6328C21.4466 20.8776 21.1523 21 20.8086 21H9.30859C8.96484 21 8.67057 20.8776 8.42578 20.6328C8.18099 20.388 8.05859 20.0938 8.05859 19.75V13.5469C8.28776 13.8021 8.55078 14.0286 8.84766 14.2266C10.7331 15.5078 12.0273 16.4062 12.7305 16.9219C13.0273 17.1406 13.2682 17.3112 13.4531 17.4336C13.638 17.556 13.8841 17.681 14.1914 17.8086C14.4987 17.9362 14.7852 18 15.0508 18H15.0586H15.0664C15.332 18 15.6185 17.9362 15.9258 17.8086C16.2331 17.681 16.4792 17.556 16.6641 17.4336C16.849 17.3112 17.0898 17.1406 17.3867 16.9219C18.2721 16.2812 19.569 15.3828 21.2773 14.2266C21.5742 14.0234 21.8346 13.7969 22.0586 13.5469ZM22.0586 11.25C22.0586 11.6615 21.931 12.0547 21.6758 12.4297C21.4206 12.8047 21.1029 13.125 20.7227 13.3906C18.7643 14.75 17.5456 15.5964 17.0664 15.9297C17.0143 15.9661 16.9036 16.0456 16.7344 16.168C16.5651 16.2904 16.4245 16.3893 16.3125 16.4648C16.2005 16.5404 16.0651 16.625 15.9062 16.7188C15.7474 16.8125 15.5977 16.8828 15.457 16.9297C15.3164 16.9766 15.1862 17 15.0664 17H15.0586H15.0508C14.931 17 14.8008 16.9766 14.6602 16.9297C14.5195 16.8828 14.3698 16.8125 14.2109 16.7188C14.0521 16.625 13.9167 16.5404 13.8047 16.4648C13.6927 16.3893 13.5521 16.2904 13.3828 16.168C13.2135 16.0456 13.1029 15.9661 13.0508 15.9297C12.5768 15.5964 11.8945 15.1211 11.0039 14.5039C10.1133 13.8867 9.57943 13.5156 9.40234 13.3906C9.07943 13.1719 8.77474 12.8711 8.48828 12.4883C8.20182 12.1055 8.05859 11.75 8.05859 11.4219C8.05859 11.0156 8.16667 10.6771 8.38281 10.4062C8.59896 10.1354 8.90755 10 9.30859 10H20.8086C21.1471 10 21.4401 10.1224 21.6875 10.3672C21.9349 10.612 22.0586 10.9062 22.0586 11.25Z" fill="white"/>
</g>
<defs>
<clipPath id="clip0_1_124">
<rect width="14" height="14" fill="white" transform="matrix(1 0 0 -1 8.05859 22)"/>
</clipPath>
</defs>
</svg>
