<svg width="30" height="30" viewBox="0 0 30 30" fill="none" xmlns="http://www.w3.org/2000/svg">
<rect width="30" height="30" rx="15" fill="#063846"/>
<g clip-path="url(#clip0_1_119)">
<path d="M20.5 17.6875C20.5 17.8281 20.474 18.0117 20.4219 18.2383C20.3698 18.4648 20.3151 18.6432 20.2578 18.7734C20.1484 19.0339 19.8307 19.3099 19.3047 19.6016C18.8151 19.8672 18.3307 20 17.8516 20C17.7109 20 17.5729 19.9909 17.4375 19.9727C17.3021 19.9544 17.1523 19.9219 16.9883 19.875C16.8242 19.8281 16.7018 19.7904 16.6211 19.7617C16.5404 19.7331 16.3958 19.6797 16.1875 19.6016C15.9792 19.5234 15.8516 19.4766 15.8047 19.4609C15.2943 19.2786 14.8385 19.0625 14.4375 18.8125C13.776 18.401 13.0885 17.8385 12.375 17.125C11.6615 16.4115 11.099 15.724 10.6875 15.0625C10.4375 14.6615 10.2214 14.2057 10.0391 13.6953C10.0234 13.6484 9.97656 13.5208 9.89844 13.3125C9.82031 13.1042 9.76693 12.9596 9.73828 12.8789C9.70964 12.7982 9.67188 12.6758 9.625 12.5117C9.57812 12.3477 9.54557 12.1979 9.52734 12.0625C9.50911 11.9271 9.5 11.7891 9.5 11.6484C9.5 11.1693 9.63281 10.6849 9.89844 10.1953C10.1901 9.66927 10.4661 9.35156 10.7266 9.24219C10.8568 9.1849 11.0352 9.13021 11.2617 9.07812C11.4883 9.02604 11.6719 9 11.8125 9C11.8854 9 11.9401 9.00781 11.9766 9.02344C12.0703 9.05469 12.2083 9.2526 12.3906 9.61719C12.4479 9.71615 12.526 9.85677 12.625 10.0391C12.724 10.2214 12.8151 10.3867 12.8984 10.5352C12.9818 10.6836 13.0625 10.8229 13.1406 10.9531C13.1562 10.974 13.2018 11.0391 13.2773 11.1484C13.3529 11.2578 13.4089 11.3503 13.4453 11.4258C13.4818 11.5013 13.5 11.5755 13.5 11.6484C13.5 11.7526 13.4258 11.8828 13.2773 12.0391C13.1289 12.1953 12.9674 12.3385 12.793 12.4688C12.6185 12.599 12.457 12.737 12.3086 12.8828C12.1602 13.0286 12.0859 13.1484 12.0859 13.2422C12.0859 13.2891 12.099 13.3477 12.125 13.418C12.151 13.4883 12.1732 13.5417 12.1914 13.5781C12.2096 13.6146 12.2461 13.6771 12.3008 13.7656C12.3555 13.8542 12.3854 13.9036 12.3906 13.9141C12.7865 14.6276 13.2396 15.2396 13.75 15.75C14.2604 16.2604 14.8724 16.7135 15.5859 17.1094C15.5964 17.1146 15.6458 17.1445 15.7344 17.1992C15.8229 17.2539 15.8854 17.2904 15.9219 17.3086C15.9583 17.3268 16.0117 17.349 16.082 17.375C16.1523 17.401 16.2109 17.4141 16.2578 17.4141C16.3516 17.4141 16.4714 17.3398 16.6172 17.1914C16.763 17.043 16.901 16.8815 17.0312 16.707C17.1615 16.5326 17.3047 16.3711 17.4609 16.2227C17.6172 16.0742 17.7474 16 17.8516 16C17.9245 16 17.9987 16.0182 18.0742 16.0547C18.1497 16.0911 18.2422 16.1471 18.3516 16.2227C18.4609 16.2982 18.526 16.3438 18.5469 16.3594C18.6771 16.4375 18.8164 16.5182 18.9648 16.6016C19.1133 16.6849 19.2786 16.776 19.4609 16.875C19.6432 16.974 19.7839 17.0521 19.8828 17.1094C20.2474 17.2917 20.4453 17.4297 20.4766 17.5234C20.4922 17.5599 20.5 17.6146 20.5 17.6875Z" fill="white"/>
</g>
<defs>
<clipPath id="clip0_1_119">
<rect width="11" height="14" fill="white" transform="matrix(1 0 0 -1 9.5 22)"/>
</clipPath>
</defs>
</svg>
