<svg width="263" height="40" viewBox="0 0 263 40" fill="none" xmlns="http://www.w3.org/2000/svg">
<rect x="130.031" y="10" width="30" height="30" rx="15" fill="#063846"/>
<g clip-path="url(#clip0_1_128)">
<path d="M148.175 17.1069V19.4641H146.773C146.262 19.4641 145.916 19.5712 145.738 19.7855C145.559 19.9998 145.47 20.3212 145.47 20.7498V22.4373H148.086L147.738 25.0801H145.47V31.8569H142.738V25.0801H140.461V22.4373H142.738V20.4909C142.738 19.3837 143.047 18.5251 143.666 17.915C144.285 17.3048 145.11 16.9998 146.14 16.9998C147.015 16.9998 147.693 17.0355 148.175 17.1069Z" fill="white"/>
</g>
<rect x="164.191" y="10" width="30" height="30" rx="15" fill="#063846"/>
<g clip-path="url(#clip1_1_128)">
<path d="M185.821 20.6429C185.423 21.2263 184.94 21.7233 184.375 22.134C184.381 22.2173 184.384 22.3423 184.384 22.509C184.384 23.2828 184.271 24.0551 184.045 24.826C183.818 25.5968 183.475 26.3364 183.013 27.0447C182.552 27.753 182.003 28.3795 181.366 28.9242C180.729 29.4688 179.961 29.9033 179.063 30.2277C178.164 30.5522 177.202 30.7144 176.179 30.7144C174.565 30.7144 173.089 30.2828 171.75 29.4197C171.958 29.4435 172.19 29.4554 172.446 29.4554C173.786 29.4554 174.979 29.0447 176.027 28.2233C175.402 28.2114 174.842 28.0194 174.348 27.6474C173.854 27.2754 173.515 26.8007 173.33 26.2233C173.527 26.253 173.708 26.2679 173.875 26.2679C174.131 26.2679 174.384 26.2352 174.634 26.1697C173.967 26.0328 173.415 25.701 172.978 25.1742C172.54 24.6474 172.321 24.0358 172.321 23.3394V23.3036C172.726 23.5298 173.161 23.6519 173.625 23.6697C173.232 23.4078 172.92 23.0655 172.688 22.6429C172.455 22.2203 172.339 21.762 172.339 21.2679C172.339 20.7441 172.47 20.259 172.732 19.8126C173.452 20.6995 174.329 21.4093 175.362 21.942C176.394 22.4748 177.5 22.7709 178.679 22.8304C178.631 22.6042 178.607 22.384 178.607 22.1697C178.607 21.3721 178.888 20.692 179.451 20.1295C180.013 19.567 180.693 19.2858 181.491 19.2858C182.324 19.2858 183.027 19.5894 183.598 20.1965C184.247 20.0715 184.857 19.8394 185.429 19.5001C185.208 20.1846 184.786 20.7144 184.161 21.0894C184.714 21.0298 185.268 20.881 185.821 20.6429Z" fill="white"/>
</g>
<rect x="198.34" y="10" width="30" height="30" rx="15" fill="#063846"/>
<g clip-path="url(#clip2_1_128)">
<path d="M214.913 28.1071V29.9911C214.913 30.3899 214.797 30.5893 214.565 30.5893C214.428 30.5893 214.294 30.5238 214.163 30.3929V27.7054C214.294 27.5744 214.428 27.5089 214.565 27.5089C214.797 27.5089 214.913 27.7083 214.913 28.1071ZM217.931 28.1161V28.5268H217.127V28.1161C217.127 27.7113 217.261 27.5089 217.529 27.5089C217.797 27.5089 217.931 27.7113 217.931 28.1161ZM209.306 26.1696H210.261V25.3304H207.476V26.1696H208.413V31.25H209.306V26.1696ZM211.877 31.25H212.672V26.8393H211.877V30.2143C211.699 30.4643 211.529 30.5893 211.368 30.5893C211.261 30.5893 211.199 30.5268 211.181 30.4018C211.175 30.3839 211.172 30.2798 211.172 30.0893V26.8393H210.377V30.3304C210.377 30.622 210.401 30.8393 210.449 30.9821C210.52 31.2024 210.693 31.3125 210.967 31.3125C211.252 31.3125 211.556 31.131 211.877 30.7679V31.25ZM215.708 29.9286V28.1696C215.708 27.7351 215.681 27.4405 215.627 27.2857C215.526 26.9524 215.315 26.7857 214.993 26.7857C214.696 26.7857 214.419 26.9464 214.163 27.2679V25.3304H213.368V31.25H214.163V30.8214C214.431 31.1488 214.708 31.3125 214.993 31.3125C215.315 31.3125 215.526 31.1488 215.627 30.8214C215.681 30.6607 215.708 30.3631 215.708 29.9286ZM218.726 29.8393V29.7232H217.913C217.913 30.0268 217.907 30.2083 217.895 30.2679C217.854 30.4821 217.734 30.5893 217.538 30.5893C217.264 30.5893 217.127 30.3839 217.127 29.9732V29.1964H218.726V28.2768C218.726 27.8065 218.645 27.4613 218.484 27.2411C218.252 26.9375 217.937 26.7857 217.538 26.7857C217.133 26.7857 216.815 26.9375 216.583 27.2411C216.416 27.4613 216.333 27.8065 216.333 28.2768V29.8214C216.333 30.2917 216.419 30.6369 216.592 30.8571C216.824 31.1607 217.145 31.3125 217.556 31.3125C217.984 31.3125 218.306 31.1548 218.52 30.8393C218.627 30.6786 218.69 30.5179 218.708 30.3571C218.72 30.3036 218.726 30.131 218.726 29.8393ZM213.297 21.6875V19.8125C213.297 19.4018 213.169 19.1964 212.913 19.1964C212.657 19.1964 212.529 19.4018 212.529 19.8125V21.6875C212.529 22.1042 212.657 22.3125 212.913 22.3125C213.169 22.3125 213.297 22.1042 213.297 21.6875ZM219.717 28.3929C219.717 29.7857 219.639 30.8274 219.484 31.5179C219.401 31.869 219.229 32.1637 218.967 32.4018C218.705 32.6399 218.401 32.7768 218.056 32.8125C216.961 32.9375 215.309 33 213.101 33C210.892 33 209.24 32.9375 208.145 32.8125C207.8 32.7768 207.495 32.6399 207.23 32.4018C206.965 32.1637 206.794 31.869 206.717 31.5179C206.562 30.8512 206.484 29.8095 206.484 28.3929C206.484 27 206.562 25.9583 206.717 25.2679C206.8 24.9167 206.973 24.622 207.234 24.3839C207.496 24.1458 207.803 24.006 208.154 23.9643C209.243 23.8452 210.892 23.7857 213.101 23.7857C215.309 23.7857 216.961 23.8452 218.056 23.9643C218.401 24.006 218.706 24.1458 218.971 24.3839C219.236 24.622 219.407 24.9167 219.484 25.2679C219.639 25.9345 219.717 26.9762 219.717 28.3929ZM210.806 17H211.717L210.636 20.5625V22.9821H209.743V20.5625C209.66 20.122 209.479 19.4911 209.199 18.6696C208.979 18.0565 208.785 17.5 208.618 17H209.565L210.199 19.3482L210.806 17ZM214.109 19.9732V21.5357C214.109 22.0179 214.026 22.369 213.859 22.5893C213.633 22.8929 213.318 23.0446 212.913 23.0446C212.514 23.0446 212.202 22.8929 211.976 22.5893C211.809 22.3631 211.726 22.0119 211.726 21.5357V19.9732C211.726 19.497 211.809 19.1488 211.976 18.9286C212.202 18.625 212.514 18.4732 212.913 18.4732C213.318 18.4732 213.633 18.625 213.859 18.9286C214.026 19.1488 214.109 19.497 214.109 19.9732ZM217.101 18.5268V22.9821H216.288V22.4911C215.973 22.8601 215.666 23.0446 215.368 23.0446C215.095 23.0446 214.919 22.9345 214.842 22.7143C214.794 22.5714 214.77 22.3482 214.77 22.0446V18.5268H215.583V21.8036C215.583 22 215.586 22.1042 215.592 22.1161C215.609 22.247 215.672 22.3125 215.779 22.3125C215.94 22.3125 216.109 22.1845 216.288 21.9286V18.5268H217.101Z" fill="white"/>
</g>
<rect x="232.5" y="10" width="30" height="30" rx="15" fill="#063846"/>
<g clip-path="url(#clip3_1_128)">
<path d="M249.118 26.6159C249.118 26.6159 249.229 26.5043 249.453 26.281C249.676 26.0578 249.787 25.6307 249.787 24.9998C249.787 24.3688 249.564 23.8301 249.118 23.3837C248.671 22.9373 248.133 22.7141 247.502 22.7141C246.871 22.7141 246.332 22.9373 245.886 23.3837C245.439 23.8301 245.216 24.3688 245.216 24.9998C245.216 25.6307 245.439 26.1694 245.886 26.6159C246.332 27.0623 246.871 27.2855 247.502 27.2855C248.133 27.2855 248.671 27.0623 249.118 26.6159ZM249.993 22.5087C249.993 22.5087 250.164 22.6798 250.506 23.0221C250.848 23.3644 251.02 24.0236 251.02 24.9998C251.02 25.976 250.677 26.8063 249.993 27.4909C249.308 28.1754 248.478 28.5176 247.502 28.5176C246.525 28.5176 245.695 28.1754 245.011 27.4909C244.326 26.8063 243.984 25.976 243.984 24.9998C243.984 24.0236 244.326 23.1932 245.011 22.5087C245.695 21.8242 246.525 21.4819 247.502 21.4819C248.478 21.4819 249.308 21.8242 249.993 22.5087ZM251.743 20.7587C251.743 20.7587 251.783 20.7989 251.863 20.8793C251.944 20.9596 251.984 21.1129 251.984 21.3391C251.984 21.5653 251.903 21.7587 251.743 21.9194C251.582 22.0801 251.389 22.1605 251.162 22.1605C250.936 22.1605 250.743 22.0801 250.582 21.9194C250.421 21.7587 250.341 21.5653 250.341 21.3391C250.341 21.1129 250.421 20.9194 250.582 20.7587C250.743 20.598 250.936 20.5176 251.162 20.5176C251.389 20.5176 251.582 20.598 251.743 20.7587ZM248.185 19.3703C248.185 19.3703 248.081 19.3711 247.874 19.3726C247.668 19.374 247.543 19.3748 247.502 19.3748C247.46 19.3748 247.232 19.3733 246.819 19.3703C246.405 19.3673 246.091 19.3673 245.877 19.3703C245.662 19.3733 245.375 19.3822 245.015 19.3971C244.655 19.412 244.348 19.4418 244.095 19.4864C243.842 19.531 243.63 19.5861 243.457 19.6516C243.159 19.7706 242.898 19.9432 242.671 20.1694C242.445 20.3956 242.273 20.6575 242.153 20.9551C242.088 21.1278 242.033 21.3406 241.988 21.5935C241.944 21.8465 241.914 22.1531 241.899 22.5132C241.884 22.8733 241.875 23.1605 241.872 23.3748C241.869 23.5891 241.869 23.9031 241.872 24.3168C241.875 24.7304 241.877 24.9581 241.877 24.9998C241.877 25.0415 241.875 25.2691 241.872 25.6828C241.869 26.0965 241.869 26.4105 241.872 26.6248C241.875 26.8391 241.884 27.1263 241.899 27.4864C241.914 27.8465 241.944 28.1531 241.988 28.406C242.033 28.659 242.088 28.8718 242.153 29.0444C242.273 29.3421 242.445 29.604 242.671 29.8301C242.898 30.0563 243.159 30.229 243.457 30.348C243.63 30.4135 243.842 30.4685 244.095 30.5132C244.348 30.5578 244.655 30.5876 245.015 30.6025C245.375 30.6174 245.662 30.6263 245.877 30.6293C246.091 30.6322 246.405 30.6322 246.819 30.6293C247.232 30.6263 247.46 30.6248 247.502 30.6248C247.543 30.6248 247.771 30.6263 248.185 30.6293C248.598 30.6322 248.912 30.6322 249.127 30.6293C249.341 30.6263 249.628 30.6174 249.988 30.6025C250.348 30.5876 250.655 30.5578 250.908 30.5132C251.161 30.4685 251.374 30.4135 251.546 30.348C251.844 30.229 252.106 30.0563 252.332 29.8301C252.558 29.604 252.731 29.3421 252.85 29.0444C252.915 28.8718 252.97 28.659 253.015 28.406C253.06 28.1531 253.089 27.8465 253.104 27.4864C253.119 27.1263 253.128 26.8391 253.131 26.6248C253.134 26.4105 253.134 26.0965 253.131 25.6828C253.128 25.2691 253.127 25.0415 253.127 24.9998C253.127 24.9581 253.128 24.7304 253.131 24.3168C253.134 23.9031 253.134 23.5891 253.131 23.3748C253.128 23.1605 253.119 22.8733 253.104 22.5132C253.089 22.1531 253.06 21.8465 253.015 21.5935C252.97 21.3406 252.915 21.1278 252.85 20.9551C252.731 20.6575 252.558 20.3956 252.332 20.1694C252.106 19.9432 251.844 19.7706 251.546 19.6516C251.374 19.5861 251.161 19.531 250.908 19.4864C250.655 19.4418 250.348 19.412 249.988 19.3971C249.628 19.3822 249.341 19.3733 249.127 19.3703C248.912 19.3673 248.598 19.3673 248.185 19.3703ZM254.314 22.1694C254.344 22.6932 254.359 23.6367 254.359 24.9998C254.359 26.3629 254.344 27.3063 254.314 27.8301C254.255 29.0682 253.886 30.0266 253.207 30.7051C252.528 31.3837 251.57 31.7528 250.332 31.8123C249.808 31.8421 248.865 31.8569 247.502 31.8569C246.139 31.8569 245.195 31.8421 244.671 31.8123C243.433 31.7528 242.475 31.3837 241.796 30.7051C241.118 30.0266 240.749 29.0682 240.689 27.8301C240.659 27.3063 240.645 26.3629 240.645 24.9998C240.645 23.6367 240.659 22.6932 240.689 22.1694C240.749 20.9313 241.118 19.973 241.796 19.2944C242.475 18.6159 243.433 18.2468 244.671 18.1873C245.195 18.1575 246.139 18.1426 247.502 18.1426C248.865 18.1426 249.808 18.1575 250.332 18.1873C251.57 18.2468 252.528 18.6159 253.207 19.2944C253.886 19.973 254.255 20.9313 254.314 22.1694Z" fill="white"/>
</g>
<defs>
<clipPath id="clip0_1_128">
<rect width="9.16" height="16" fill="white" transform="matrix(1 0 0 -1 140.453 33)"/>
</clipPath>
<clipPath id="clip1_1_128">
<rect width="14.86" height="16" fill="white" transform="matrix(1 0 0 -1 171.75 33)"/>
</clipPath>
<clipPath id="clip2_1_128">
<rect width="13.72" height="16" fill="white" transform="matrix(1 0 0 -1 206.481 33)"/>
</clipPath>
<clipPath id="clip3_1_128">
<rect width="13.72" height="16" fill="white" transform="matrix(1 0 0 -1 240.641 33)"/>
</clipPath>
</defs>
</svg>
