<svg width="532" height="630" viewBox="0 0 532 630" fill="none" xmlns="http://www.w3.org/2000/svg">
<g filter="url(#filter0_d_1_164)">
<path d="M40.0238 111.184C28.7826 236.857 23.2432 305.399 20.549 409.581C24.4151 450.052 31.7698 467.539 61.0111 482.592C178.668 533.21 260.758 572.175 357.061 608.777C397.644 613.024 413.427 604.343 429.336 582.416C462.051 502.057 477.909 411.497 508.798 297.7C516.698 253.296 510.193 234.01 477.306 210.384C354.823 139.309 176.174 40.7263 176.174 40.7263C176.174 40.7263 142.426 18.7748 120.596 20.4772C94.7297 25.0678 82.8011 32.3057 67.1611 48.0787C49.0585 66.7351 43.1633 80.5708 40.0238 111.184Z" fill="url(#paint0_linear_1_164)"/>
</g>
<defs>
<filter id="filter0_d_1_164" x="0.548981" y="0.382812" width="531.286" height="629.439" filterUnits="userSpaceOnUse" color-interpolation-filters="sRGB">
<feFlood flood-opacity="0" result="BackgroundImageFix"/>
<feColorMatrix in="SourceAlpha" type="matrix" values="0 0 0 0 0 0 0 0 0 0 0 0 0 0 0 0 0 0 127 0" result="hardAlpha"/>
<feOffset/>
<feGaussianBlur stdDeviation="10"/>
<feComposite in2="hardAlpha" operator="out"/>
<feColorMatrix type="matrix" values="0 0 0 0 0 0 0 0 0 0 0 0 0 0 0 0 0 0 0.1 0"/>
<feBlend mode="normal" in2="BackgroundImageFix" result="effect1_dropShadow_1_164"/>
<feBlend mode="normal" in="SourceGraphic" in2="effect1_dropShadow_1_164" result="shape"/>
</filter>
<linearGradient id="paint0_linear_1_164" x1="40.5017" y1="475.5" x2="402.502" y2="623" gradientUnits="userSpaceOnUse">
<stop stop-color="#0B161E"/>
<stop offset="1" stop-color="#063846"/>
</linearGradient>
</defs>
</svg>
