<svg width="490" height="555" viewBox="0 0 490 555" fill="none" xmlns="http://www.w3.org/2000/svg">
<path d="M0.288405 101.66C5.21065 227.739 8.48203 296.426 19.1328 400.098C28.1426 439.742 37.6733 456.145 68.5995 467.335C191.763 502.491 278.162 530.638 378.355 554.625C419.148 553.647 433.692 543.019 446.666 519.237C468.836 435.355 472.983 343.51 489.066 226.697C491.222 181.648 482.305 163.352 446.666 144.126C316.1 89.2973 126.311 14.37 126.311 14.37C126.311 14.37 90.0326 -3.08555 68.5995 1.39449C43.5325 9.25527 32.6274 17.9591 19.1328 35.6028C3.56474 56.421 -0.512763 70.8969 0.288405 101.66Z" fill="white"/>
</svg>
