<svg width="445" height="500" viewBox="0 0 445 500" fill="none" xmlns="http://www.w3.org/2000/svg">
<path d="M0 0H444.855V500H0V0Z" fill="white"/>
<path d="M27.0734 41.824H417.929V426.614H27.0734V41.824Z"/>
<path d="M129.456 453.431H126.797V452.488H129.456C129.971 452.488 130.388 452.416 130.707 452.272C131.026 452.128 131.258 451.928 131.404 451.671C131.555 451.415 131.63 451.123 131.63 450.794C131.63 450.494 131.555 450.212 131.404 449.947C131.258 449.683 131.026 449.471 130.707 449.311C130.388 449.146 129.971 449.064 129.456 449.064H127.104V456.861H125.785V448.115H129.456C130.208 448.115 130.844 448.229 131.363 448.458C131.883 448.686 132.277 449.002 132.546 449.407C132.815 449.807 132.949 450.266 132.949 450.782C132.949 451.343 132.815 451.821 132.546 452.218C132.277 452.614 131.883 452.917 131.363 453.125C130.844 453.329 130.208 453.431 129.456 453.431Z" fill="black"/>
<path d="M133.995 453.684V453.546C133.995 453.077 134.073 452.642 134.228 452.242C134.382 451.838 134.606 451.487 134.897 451.191C135.189 450.89 135.542 450.658 135.957 450.494C136.372 450.326 136.837 450.242 137.352 450.242C137.871 450.242 138.338 450.326 138.753 450.494C139.172 450.658 139.528 450.89 139.819 451.191C140.116 451.487 140.341 451.838 140.496 452.242C140.651 452.642 140.729 453.077 140.729 453.546V453.684C140.729 454.152 140.651 454.587 140.496 454.987C140.341 455.388 140.116 455.738 139.819 456.038C139.528 456.335 139.174 456.567 138.76 456.735C138.35 456.899 137.885 456.982 137.365 456.982C136.846 456.982 136.379 456.899 135.964 456.735C135.549 456.567 135.194 456.335 134.897 456.038C134.606 455.738 134.382 455.388 134.228 454.987C134.073 454.587 133.995 454.152 133.995 453.684ZM135.26 453.546V453.684C135.26 454.008 135.303 454.314 135.39 454.603C135.476 454.887 135.606 455.139 135.779 455.36C135.957 455.58 136.178 455.754 136.442 455.882C136.707 456.006 137.014 456.068 137.365 456.068C137.712 456.068 138.015 456.006 138.274 455.882C138.539 455.754 138.757 455.58 138.931 455.36C139.104 455.139 139.234 454.887 139.32 454.603C139.411 454.314 139.457 454.008 139.457 453.684V453.546C139.457 453.225 139.411 452.923 139.32 452.638C139.234 452.35 139.102 452.096 138.924 451.876C138.751 451.651 138.532 451.475 138.268 451.347C138.008 451.219 137.702 451.155 137.352 451.155C137.005 451.155 136.7 451.219 136.436 451.347C136.176 451.475 135.957 451.651 135.779 451.876C135.606 452.096 135.476 452.35 135.39 452.638C135.303 452.923 135.26 453.225 135.26 453.546Z" fill="black"/>
<path d="M143.688 447.635V456.861H142.417V447.635H143.688Z" fill="black"/>
<path d="M150.08 455.75V452.404C150.08 452.148 150.021 451.926 149.902 451.737C149.788 451.545 149.615 451.397 149.383 451.293C149.15 451.189 148.863 451.137 148.521 451.137C148.202 451.137 147.922 451.185 147.681 451.281C147.444 451.377 147.257 451.503 147.12 451.659C146.988 451.815 146.922 451.984 146.922 452.164H145.657C145.657 451.932 145.726 451.701 145.862 451.473C145.999 451.245 146.195 451.039 146.45 450.854C146.71 450.666 147.02 450.518 147.38 450.41C147.744 450.298 148.15 450.242 148.597 450.242C149.134 450.242 149.608 450.322 150.019 450.482C150.433 450.642 150.757 450.884 150.989 451.209C151.226 451.529 151.345 451.932 151.345 452.416V455.444C151.345 455.66 151.365 455.89 151.406 456.135C151.452 456.379 151.518 456.589 151.604 456.765V456.861H150.285C150.221 456.733 150.171 456.563 150.135 456.351C150.098 456.135 150.08 455.934 150.08 455.75ZM150.299 452.921L150.312 453.702H149.034C148.674 453.702 148.353 453.728 148.07 453.78C147.788 453.828 147.551 453.902 147.359 454.002C147.168 454.102 147.022 454.228 146.922 454.38C146.822 454.529 146.771 454.703 146.771 454.903C146.771 455.107 146.824 455.294 146.929 455.462C147.034 455.63 147.191 455.764 147.4 455.864C147.615 455.96 147.877 456.008 148.187 456.008C148.574 456.008 148.916 455.936 149.212 455.792C149.508 455.648 149.743 455.472 149.916 455.263C150.094 455.055 150.189 454.853 150.203 454.657L150.743 455.191C150.711 455.36 150.625 455.546 150.483 455.75C150.342 455.954 150.153 456.151 149.916 456.339C149.684 456.523 149.406 456.677 149.082 456.801C148.763 456.921 148.403 456.982 148.002 456.982C147.501 456.982 147.061 456.895 146.683 456.723C146.309 456.551 146.017 456.321 145.808 456.032C145.603 455.74 145.5 455.414 145.5 455.053C145.5 454.705 145.577 454.398 145.732 454.134C145.887 453.866 146.111 453.644 146.402 453.467C146.694 453.287 147.045 453.151 147.455 453.059C147.865 452.967 148.323 452.921 148.829 452.921H150.299Z" fill="black"/>
<path d="M154.599 451.383V456.861H153.334V450.362H154.564L154.599 451.383ZM156.909 450.326L156.902 451.359C156.798 451.339 156.697 451.327 156.602 451.323C156.51 451.315 156.406 451.311 156.287 451.311C155.995 451.311 155.738 451.351 155.515 451.431C155.291 451.511 155.102 451.623 154.947 451.767C154.792 451.912 154.669 452.084 154.578 452.284C154.492 452.48 154.435 452.697 154.407 452.933L154.052 453.113C154.052 452.721 154.095 452.352 154.182 452.008C154.273 451.663 154.412 451.359 154.599 451.095C154.785 450.826 155.022 450.618 155.31 450.47C155.601 450.318 155.948 450.242 156.349 450.242C156.44 450.242 156.545 450.252 156.663 450.272C156.782 450.288 156.864 450.306 156.909 450.326Z" fill="black"/>
<path d="M157.606 453.684V453.546C157.606 453.077 157.684 452.642 157.839 452.242C157.994 451.838 158.217 451.487 158.509 451.191C158.8 450.89 159.154 450.658 159.568 450.494C159.983 450.326 160.448 450.242 160.963 450.242C161.482 450.242 161.95 450.326 162.364 450.494C162.784 450.658 163.139 450.89 163.431 451.191C163.727 451.487 163.952 451.838 164.107 452.242C164.262 452.642 164.34 453.077 164.34 453.546V453.684C164.34 454.152 164.262 454.587 164.107 454.987C163.952 455.388 163.727 455.738 163.431 456.038C163.139 456.335 162.786 456.567 162.371 456.735C161.961 456.899 161.496 456.982 160.977 456.982C160.457 456.982 159.99 456.899 159.575 456.735C159.16 456.567 158.805 456.335 158.509 456.038C158.217 455.738 157.994 455.388 157.839 454.987C157.684 454.587 157.606 454.152 157.606 453.684ZM158.871 453.546V453.684C158.871 454.008 158.914 454.314 159.001 454.603C159.088 454.887 159.217 455.139 159.391 455.36C159.568 455.58 159.789 455.754 160.054 455.882C160.318 456.006 160.626 456.068 160.977 456.068C161.323 456.068 161.626 456.006 161.886 455.882C162.15 455.754 162.369 455.58 162.542 455.36C162.715 455.139 162.845 454.887 162.932 454.603C163.023 454.314 163.068 454.008 163.068 453.684V453.546C163.068 453.225 163.023 452.923 162.932 452.638C162.845 452.35 162.713 452.096 162.535 451.876C162.362 451.651 162.143 451.475 161.879 451.347C161.619 451.219 161.314 451.155 160.963 451.155C160.617 451.155 160.311 451.219 160.047 451.347C159.787 451.475 159.568 451.651 159.391 451.876C159.217 452.096 159.088 452.35 159.001 452.638C158.914 452.923 158.871 453.225 158.871 453.546Z" fill="black"/>
<path d="M167.3 450.362V456.861H166.028V450.362H167.3ZM165.933 448.638C165.933 448.458 165.994 448.305 166.117 448.181C166.245 448.057 166.432 447.995 166.678 447.995C166.919 447.995 167.104 448.057 167.231 448.181C167.364 448.305 167.43 448.458 167.43 448.638C167.43 448.81 167.364 448.958 167.231 449.082C167.104 449.202 166.919 449.263 166.678 449.263C166.432 449.263 166.245 449.202 166.117 449.082C165.994 448.958 165.933 448.81 165.933 448.638Z" fill="black"/>
<path d="M173.992 455.6V447.635H175.264V456.861H174.102L173.992 455.6ZM169.016 453.684V453.558C169.016 453.061 169.084 452.61 169.221 452.206C169.362 451.797 169.56 451.447 169.815 451.155C170.075 450.862 170.383 450.638 170.738 450.482C171.098 450.322 171.499 450.242 171.941 450.242C172.406 450.242 172.812 450.314 173.158 450.458C173.509 450.598 173.805 450.804 174.047 451.077C174.293 451.345 174.487 451.669 174.628 452.05C174.769 452.43 174.867 452.861 174.922 453.341V453.894C174.872 454.37 174.774 454.799 174.628 455.179C174.487 455.56 174.293 455.884 174.047 456.153C173.805 456.421 173.509 456.627 173.158 456.771C172.807 456.911 172.397 456.982 171.928 456.982C171.495 456.982 171.098 456.899 170.738 456.735C170.383 456.571 170.075 456.341 169.815 456.044C169.56 455.748 169.362 455.4 169.221 454.999C169.084 454.595 169.016 454.156 169.016 453.684ZM170.287 453.558V453.684C170.287 454.008 170.324 454.312 170.396 454.597C170.474 454.881 170.592 455.131 170.752 455.348C170.911 455.564 171.114 455.734 171.36 455.858C171.606 455.978 171.9 456.038 172.242 456.038C172.661 456.038 173.006 455.96 173.274 455.804C173.548 455.648 173.767 455.442 173.931 455.185C174.095 454.929 174.222 454.651 174.313 454.35V452.903C174.259 452.682 174.179 452.47 174.074 452.266C173.974 452.058 173.842 451.874 173.678 451.713C173.518 451.549 173.32 451.419 173.083 451.323C172.851 451.227 172.575 451.179 172.256 451.179C171.91 451.179 171.611 451.243 171.36 451.371C171.114 451.495 170.911 451.667 170.752 451.888C170.592 452.104 170.474 452.356 170.396 452.644C170.324 452.929 170.287 453.233 170.287 453.558Z" fill="black"/>
<path d="M182.312 448.115V456.861H180.992V448.115H182.312Z" fill="black"/>
<path d="M185.777 451.653V456.861H184.506V450.362H185.709L185.777 451.653ZM185.518 453.365L184.93 453.347C184.934 452.903 185 452.492 185.128 452.116C185.256 451.735 185.445 451.405 185.695 451.125C185.946 450.844 186.258 450.628 186.632 450.476C187.006 450.32 187.438 450.242 187.931 450.242C188.277 450.242 188.596 450.286 188.888 450.374C189.179 450.458 189.432 450.592 189.646 450.776C189.861 450.96 190.027 451.197 190.146 451.485C190.264 451.773 190.323 452.122 190.323 452.53V456.861H189.059V452.584C189.059 452.244 188.993 451.972 188.86 451.767C188.733 451.563 188.55 451.415 188.313 451.323C188.076 451.227 187.799 451.179 187.479 451.179C187.106 451.179 186.794 451.237 186.543 451.353C186.292 451.469 186.092 451.629 185.941 451.834C185.791 452.038 185.682 452.272 185.613 452.536C185.549 452.797 185.518 453.073 185.518 453.365ZM190.31 452.753L189.462 452.981C189.466 452.624 189.533 452.282 189.66 451.954C189.792 451.625 189.981 451.333 190.228 451.077C190.478 450.82 190.786 450.618 191.15 450.47C191.515 450.318 191.932 450.242 192.401 450.242C192.798 450.242 193.149 450.288 193.454 450.38C193.764 450.472 194.024 450.614 194.233 450.806C194.448 450.995 194.609 451.237 194.719 451.533C194.828 451.83 194.883 452.182 194.883 452.59V456.861H193.611V452.578C193.611 452.214 193.545 451.932 193.413 451.731C193.285 451.527 193.103 451.385 192.866 451.305C192.634 451.221 192.356 451.179 192.032 451.179C191.754 451.179 191.508 451.221 191.294 451.305C191.08 451.389 190.9 451.505 190.754 451.653C190.608 451.797 190.496 451.964 190.419 452.152C190.346 452.34 190.31 452.54 190.31 452.753Z" fill="black"/>
<path d="M201.158 455.75V452.404C201.158 452.148 201.099 451.926 200.98 451.737C200.867 451.545 200.693 451.397 200.461 451.293C200.229 451.189 199.941 451.137 199.6 451.137C199.281 451.137 199 451.185 198.759 451.281C198.522 451.377 198.335 451.503 198.198 451.659C198.066 451.815 198 451.984 198 452.164H196.735C196.735 451.932 196.804 451.701 196.94 451.473C197.077 451.245 197.273 451.039 197.528 450.854C197.788 450.666 198.098 450.518 198.458 450.41C198.823 450.298 199.228 450.242 199.675 450.242C200.213 450.242 200.687 450.322 201.097 450.482C201.511 450.642 201.835 450.884 202.067 451.209C202.304 451.529 202.423 451.932 202.423 452.416V455.444C202.423 455.66 202.443 455.89 202.484 456.135C202.53 456.379 202.596 456.589 202.683 456.765V456.861H201.363C201.299 456.733 201.249 456.563 201.213 456.351C201.176 456.135 201.158 455.934 201.158 455.75ZM201.377 452.921L201.391 453.702H200.112C199.752 453.702 199.431 453.728 199.148 453.78C198.866 453.828 198.629 453.902 198.438 454.002C198.246 454.102 198.1 454.228 198 454.38C197.9 454.529 197.85 454.703 197.85 454.903C197.85 455.107 197.902 455.294 198.007 455.462C198.112 455.63 198.269 455.764 198.479 455.864C198.693 455.96 198.955 456.008 199.265 456.008C199.652 456.008 199.994 455.936 200.29 455.792C200.586 455.648 200.821 455.472 200.994 455.263C201.172 455.055 201.268 454.853 201.281 454.657L201.821 455.191C201.789 455.36 201.703 455.546 201.562 455.75C201.42 455.954 201.231 456.151 200.994 456.339C200.762 456.523 200.484 456.677 200.16 456.801C199.841 456.921 199.481 456.982 199.08 456.982C198.579 456.982 198.139 456.895 197.761 456.723C197.387 456.551 197.095 456.321 196.886 456.032C196.681 455.74 196.578 455.414 196.578 455.053C196.578 454.705 196.656 454.398 196.811 454.134C196.965 453.866 197.189 453.644 197.48 453.467C197.772 453.287 198.123 453.151 198.533 453.059C198.943 452.967 199.401 452.921 199.907 452.921H201.377Z" fill="black"/>
<path d="M209.204 450.362H210.353V456.723C210.353 457.296 210.22 457.784 209.956 458.189C209.692 458.593 209.323 458.9 208.849 459.108C208.379 459.32 207.837 459.426 207.222 459.426C206.966 459.426 206.666 459.39 206.319 459.318C205.978 459.25 205.64 459.132 205.308 458.964C204.979 458.8 204.704 458.577 204.48 458.297L205.144 457.636C205.453 457.965 205.777 458.193 206.114 458.321C206.456 458.449 206.793 458.513 207.126 458.513C207.527 458.513 207.873 458.447 208.165 458.315C208.457 458.183 208.682 457.987 208.842 457.726C209.006 457.47 209.088 457.154 209.088 456.777V451.791L209.204 450.362ZM204.111 453.684V453.558C204.111 453.061 204.177 452.61 204.31 452.206C204.446 451.797 204.64 451.447 204.891 451.155C205.146 450.862 205.453 450.638 205.813 450.482C206.174 450.322 206.579 450.242 207.03 450.242C207.495 450.242 207.901 450.314 208.247 450.458C208.598 450.598 208.894 450.804 209.136 451.077C209.382 451.345 209.576 451.669 209.717 452.05C209.858 452.43 209.956 452.861 210.011 453.341V453.894C209.961 454.37 209.863 454.799 209.717 455.179C209.576 455.56 209.382 455.884 209.136 456.153C208.894 456.421 208.598 456.627 208.247 456.771C207.896 456.911 207.486 456.982 207.017 456.982C206.575 456.982 206.174 456.899 205.813 456.735C205.458 456.571 205.153 456.341 204.897 456.044C204.642 455.748 204.446 455.4 204.31 454.999C204.177 454.595 204.111 454.156 204.111 453.684ZM205.376 453.558V453.684C205.376 454.008 205.412 454.312 205.485 454.597C205.563 454.881 205.679 455.131 205.834 455.348C205.993 455.564 206.196 455.734 206.442 455.858C206.688 455.978 206.982 456.038 207.324 456.038C207.743 456.038 208.09 455.96 208.363 455.804C208.637 455.648 208.853 455.442 209.013 455.185C209.177 454.929 209.304 454.651 209.396 454.35V452.903C209.345 452.682 209.268 452.47 209.163 452.266C209.063 452.058 208.931 451.874 208.767 451.713C208.607 451.549 208.409 451.419 208.172 451.323C207.935 451.227 207.657 451.179 207.338 451.179C206.992 451.179 206.693 451.243 206.442 451.371C206.196 451.495 205.993 451.667 205.834 451.888C205.679 452.104 205.563 452.356 205.485 452.644C205.412 452.929 205.376 453.233 205.376 453.558Z" fill="black"/>
<path d="M215.343 456.982C214.828 456.982 214.361 456.905 213.941 456.753C213.527 456.597 213.169 456.379 212.868 456.098C212.572 455.818 212.344 455.486 212.185 455.101C212.025 454.717 211.945 454.296 211.945 453.84V453.588C211.945 453.059 212.034 452.588 212.212 452.176C212.39 451.759 212.631 451.407 212.937 451.119C213.242 450.83 213.588 450.612 213.976 450.464C214.363 450.316 214.764 450.242 215.179 450.242C215.707 450.242 216.163 450.322 216.546 450.482C216.933 450.642 217.25 450.866 217.496 451.155C217.742 451.439 217.924 451.775 218.043 452.164C218.161 452.548 218.221 452.969 218.221 453.425V453.924H212.697V453.017H216.956V452.933C216.938 452.644 216.869 452.364 216.751 452.092C216.637 451.82 216.455 451.595 216.204 451.419C215.953 451.243 215.612 451.155 215.179 451.155C214.892 451.155 214.627 451.209 214.386 451.317C214.144 451.421 213.937 451.577 213.764 451.785C213.59 451.994 213.456 452.248 213.36 452.548C213.265 452.849 213.217 453.195 213.217 453.588V453.84C213.217 454.148 213.265 454.439 213.36 454.711C213.461 454.979 213.604 455.215 213.791 455.42C213.982 455.624 214.213 455.784 214.481 455.9C214.755 456.016 215.065 456.074 215.411 456.074C215.858 456.074 216.236 455.994 216.546 455.834C216.856 455.674 217.127 455.46 217.359 455.191L218.125 455.726C217.965 455.938 217.763 456.141 217.517 456.333C217.271 456.525 216.967 456.681 216.607 456.801C216.252 456.921 215.83 456.982 215.343 456.982Z" fill="black"/>
<path d="M224.1 448.115L219.95 457.612H218.863L223.02 448.115H224.1Z" fill="black"/>
<path d="M230.977 454.651C230.977 454.447 230.94 454.266 230.867 454.11C230.799 453.95 230.676 453.806 230.498 453.678C230.325 453.549 230.083 453.427 229.773 453.311C229.468 453.195 229.081 453.077 228.611 452.957C228.119 452.829 227.675 452.687 227.278 452.53C226.882 452.37 226.542 452.188 226.26 451.984C225.977 451.779 225.761 451.545 225.61 451.281C225.46 451.017 225.385 450.714 225.385 450.374C225.385 450.033 225.465 449.719 225.624 449.431C225.784 449.142 226.011 448.892 226.308 448.68C226.608 448.464 226.966 448.295 227.381 448.175C227.796 448.055 228.258 447.995 228.769 447.995C229.516 447.995 230.149 448.121 230.669 448.374C231.193 448.622 231.592 448.948 231.865 449.353C232.139 449.753 232.275 450.182 232.275 450.638H230.963C230.963 450.31 230.883 450.019 230.724 449.767C230.564 449.511 230.323 449.311 229.999 449.166C229.675 449.018 229.265 448.944 228.769 448.944C228.299 448.944 227.912 449.006 227.606 449.13C227.301 449.255 227.073 449.423 226.923 449.635C226.777 449.847 226.704 450.09 226.704 450.362C226.704 450.546 226.747 450.714 226.834 450.866C226.925 451.015 227.064 451.153 227.251 451.281C227.442 451.409 227.684 451.527 227.976 451.635C228.272 451.743 228.625 451.848 229.035 451.948C229.6 452.088 230.088 452.244 230.498 452.416C230.908 452.588 231.245 452.783 231.51 452.999C231.779 453.211 231.977 453.453 232.104 453.726C232.237 453.994 232.303 454.298 232.303 454.639C232.303 454.995 232.221 455.318 232.057 455.606C231.893 455.894 231.658 456.141 231.353 456.345C231.047 456.549 230.68 456.707 230.252 456.819C229.828 456.927 229.354 456.982 228.83 456.982C228.37 456.982 227.916 456.925 227.47 456.813C227.028 456.701 226.624 456.533 226.26 456.309C225.9 456.084 225.61 455.808 225.392 455.48C225.177 455.147 225.07 454.763 225.07 454.326H226.383C226.383 454.627 226.449 454.885 226.581 455.101C226.713 455.314 226.893 455.49 227.121 455.63C227.354 455.77 227.616 455.874 227.907 455.942C228.203 456.006 228.511 456.038 228.83 456.038C229.29 456.038 229.68 455.982 229.999 455.87C230.318 455.758 230.56 455.598 230.724 455.39C230.892 455.181 230.977 454.935 230.977 454.651Z" fill="black"/>
<path d="M235.058 451.611V459.36H233.786V450.362H234.948L235.058 451.611ZM240.041 453.558V453.684C240.041 454.156 239.977 454.595 239.85 454.999C239.722 455.4 239.535 455.748 239.289 456.044C239.048 456.341 238.749 456.571 238.394 456.735C238.038 456.899 237.63 456.982 237.17 456.982C236.701 456.982 236.286 456.913 235.926 456.777C235.566 456.641 235.26 456.443 235.01 456.183C234.759 455.922 234.559 455.61 234.408 455.245C234.262 454.881 234.162 454.471 234.107 454.014V453.341C234.162 452.861 234.265 452.43 234.415 452.05C234.565 451.669 234.764 451.345 235.01 451.077C235.26 450.804 235.563 450.598 235.919 450.458C236.274 450.314 236.685 450.242 237.149 450.242C237.614 450.242 238.027 450.322 238.387 450.482C238.747 450.638 239.05 450.862 239.296 451.155C239.542 451.447 239.727 451.797 239.85 452.206C239.977 452.61 240.041 453.061 240.041 453.558ZM238.77 453.684V453.558C238.77 453.233 238.731 452.929 238.653 452.644C238.576 452.356 238.455 452.104 238.291 451.888C238.132 451.667 237.926 451.495 237.676 451.371C237.425 451.243 237.127 451.179 236.78 451.179C236.461 451.179 236.183 451.227 235.946 451.323C235.714 451.419 235.516 451.549 235.352 451.713C235.188 451.874 235.053 452.058 234.948 452.266C234.848 452.47 234.773 452.682 234.723 452.903V454.459C234.814 454.739 234.941 455.003 235.105 455.251C235.27 455.496 235.488 455.694 235.762 455.846C236.035 455.994 236.379 456.068 236.794 456.068C237.136 456.068 237.43 456.006 237.676 455.882C237.926 455.754 238.132 455.58 238.291 455.36C238.455 455.139 238.576 454.887 238.653 454.603C238.731 454.314 238.77 454.008 238.77 453.684Z" fill="black"/>
<path d="M244.724 456.982C244.209 456.982 243.742 456.905 243.322 456.753C242.908 456.597 242.55 456.379 242.249 456.098C241.953 455.818 241.725 455.486 241.565 455.101C241.406 454.717 241.326 454.296 241.326 453.84V453.588C241.326 453.059 241.415 452.588 241.593 452.176C241.771 451.759 242.012 451.407 242.317 451.119C242.623 450.83 242.969 450.612 243.356 450.464C243.744 450.316 244.145 450.242 244.56 450.242C245.088 450.242 245.544 450.322 245.927 450.482C246.314 450.642 246.631 450.866 246.877 451.155C247.123 451.439 247.305 451.775 247.424 452.164C247.542 452.548 247.602 452.969 247.602 453.425V453.924H242.078V453.017H246.337V452.933C246.319 452.644 246.25 452.364 246.132 452.092C246.018 451.82 245.836 451.595 245.585 451.419C245.334 451.243 244.993 451.155 244.56 451.155C244.272 451.155 244.008 451.209 243.767 451.317C243.525 451.421 243.318 451.577 243.145 451.785C242.971 451.994 242.837 452.248 242.741 452.548C242.646 452.849 242.598 453.195 242.598 453.588V453.84C242.598 454.148 242.646 454.439 242.741 454.711C242.841 454.979 242.985 455.215 243.172 455.42C243.363 455.624 243.593 455.784 243.862 455.9C244.136 456.016 244.446 456.074 244.792 456.074C245.239 456.074 245.617 455.994 245.927 455.834C246.237 455.674 246.508 455.46 246.74 455.191L247.506 455.726C247.346 455.938 247.144 456.141 246.897 456.333C246.651 456.525 246.348 456.681 245.988 456.801C245.633 456.921 245.211 456.982 244.724 456.982Z" fill="black"/>
<path d="M252.038 456.068C252.339 456.068 252.617 456.014 252.872 455.906C253.127 455.798 253.337 455.65 253.501 455.462C253.665 455.27 253.758 455.051 253.781 454.807H254.984C254.962 455.191 254.813 455.55 254.54 455.882C254.271 456.211 253.918 456.477 253.48 456.681C253.043 456.881 252.562 456.982 252.038 456.982C251.482 456.982 250.997 456.895 250.582 456.723C250.172 456.551 249.83 456.315 249.557 456.014C249.288 455.714 249.085 455.37 248.948 454.981C248.816 454.589 248.75 454.174 248.75 453.738V453.485C248.75 453.049 248.816 452.636 248.948 452.248C249.085 451.856 249.288 451.509 249.557 451.209C249.83 450.908 250.172 450.672 250.582 450.5C250.997 450.328 251.482 450.242 252.038 450.242C252.617 450.242 253.123 450.346 253.556 450.554C253.989 450.758 254.328 451.039 254.574 451.395C254.825 451.747 254.962 452.148 254.984 452.596H253.781C253.758 452.328 253.672 452.086 253.521 451.87C253.376 451.653 253.175 451.481 252.92 451.353C252.669 451.221 252.375 451.155 252.038 451.155C251.651 451.155 251.325 451.223 251.061 451.359C250.801 451.491 250.593 451.671 250.438 451.9C250.288 452.124 250.179 452.374 250.11 452.65C250.047 452.923 250.015 453.201 250.015 453.485V453.738C250.015 454.022 250.047 454.302 250.11 454.579C250.174 454.855 250.281 455.105 250.432 455.33C250.587 455.554 250.794 455.734 251.054 455.87C251.318 456.002 251.646 456.068 252.038 456.068Z" fill="black"/>
<path d="M259.503 450.362V451.215H255.504V450.362H259.503ZM256.857 448.782H258.122V455.251C258.122 455.472 258.161 455.638 258.238 455.75C258.316 455.862 258.416 455.936 258.539 455.972C258.662 456.008 258.794 456.026 258.936 456.026C259.04 456.026 259.15 456.018 259.264 456.002C259.382 455.982 259.471 455.966 259.53 455.954L259.537 456.861C259.437 456.889 259.305 456.915 259.141 456.939C258.981 456.967 258.787 456.982 258.56 456.982C258.25 456.982 257.965 456.927 257.705 456.819C257.445 456.711 257.238 456.531 257.083 456.279C256.933 456.022 256.857 455.678 256.857 455.245V448.782Z" fill="black"/>
<path d="M262.251 451.383V456.861H260.986V450.362H262.217L262.251 451.383ZM264.562 450.326L264.555 451.359C264.45 451.339 264.35 451.327 264.254 451.323C264.163 451.315 264.058 451.311 263.939 451.311C263.648 451.311 263.39 451.351 263.167 451.431C262.944 451.511 262.755 451.623 262.6 451.767C262.445 451.912 262.322 452.084 262.23 452.284C262.144 452.48 262.087 452.697 262.06 452.933L261.704 453.113C261.704 452.721 261.747 452.352 261.834 452.008C261.925 451.663 262.064 451.359 262.251 451.095C262.438 450.826 262.675 450.618 262.962 450.47C263.254 450.318 263.6 450.242 264.001 450.242C264.092 450.242 264.197 450.252 264.315 450.272C264.434 450.288 264.516 450.306 264.562 450.326Z" fill="black"/>
<path d="M269.818 455.75V452.404C269.818 452.148 269.759 451.926 269.641 451.737C269.527 451.545 269.354 451.397 269.121 451.293C268.889 451.189 268.602 451.137 268.26 451.137C267.941 451.137 267.66 451.185 267.419 451.281C267.182 451.377 266.995 451.503 266.858 451.659C266.726 451.815 266.66 451.984 266.66 452.164H265.396C265.396 451.932 265.464 451.701 265.601 451.473C265.737 451.245 265.933 451.039 266.188 450.854C266.448 450.666 266.758 450.518 267.118 450.41C267.483 450.298 267.888 450.242 268.335 450.242C268.873 450.242 269.347 450.322 269.757 450.482C270.172 450.642 270.495 450.884 270.728 451.209C270.965 451.529 271.083 451.932 271.083 452.416V455.444C271.083 455.66 271.104 455.89 271.145 456.135C271.19 456.379 271.256 456.589 271.343 456.765V456.861H270.023C269.96 456.733 269.91 456.563 269.873 456.351C269.837 456.135 269.818 455.934 269.818 455.75ZM270.037 452.921L270.051 453.702H268.772C268.412 453.702 268.091 453.728 267.809 453.78C267.526 453.828 267.289 453.902 267.098 454.002C266.906 454.102 266.76 454.228 266.66 454.38C266.56 454.529 266.51 454.703 266.51 454.903C266.51 455.107 266.562 455.294 266.667 455.462C266.772 455.63 266.929 455.764 267.139 455.864C267.353 455.96 267.615 456.008 267.925 456.008C268.312 456.008 268.654 455.936 268.95 455.792C269.246 455.648 269.481 455.472 269.654 455.263C269.832 455.055 269.928 454.853 269.941 454.657L270.481 455.191C270.45 455.36 270.363 455.546 270.222 455.75C270.08 455.954 269.891 456.151 269.654 456.339C269.422 456.523 269.144 456.677 268.82 456.801C268.501 456.921 268.141 456.982 267.74 456.982C267.239 456.982 266.799 456.895 266.421 456.723C266.047 456.551 265.756 456.321 265.546 456.032C265.341 455.74 265.238 455.414 265.238 455.053C265.238 454.705 265.316 454.398 265.471 454.134C265.626 453.866 265.849 453.644 266.141 453.467C266.432 453.287 266.783 453.151 267.193 453.059C267.604 452.967 268.062 452.921 268.567 452.921H270.037Z" fill="black"/>
<path d="M278.056 448.115V456.861H276.736V448.115H278.056ZM282.226 452.05V452.999H277.769V452.05H282.226ZM282.902 448.115V449.064H277.769V448.115H282.902Z" fill="black"/>
<path d="M283.798 453.684V453.546C283.798 453.077 283.875 452.642 284.03 452.242C284.185 451.838 284.409 451.487 284.7 451.191C284.992 450.89 285.345 450.658 285.76 450.494C286.174 450.326 286.639 450.242 287.154 450.242C287.674 450.242 288.141 450.326 288.556 450.494C288.975 450.658 289.33 450.89 289.622 451.191C289.918 451.487 290.144 451.838 290.299 452.242C290.454 452.642 290.531 453.077 290.531 453.546V453.684C290.531 454.152 290.454 454.587 290.299 454.987C290.144 455.388 289.918 455.738 289.622 456.038C289.33 456.335 288.977 456.567 288.562 456.735C288.152 456.899 287.688 456.982 287.168 456.982C286.648 456.982 286.181 456.899 285.767 456.735C285.352 456.567 284.996 456.335 284.7 456.038C284.409 455.738 284.185 455.388 284.03 454.987C283.875 454.587 283.798 454.152 283.798 453.684ZM285.062 453.546V453.684C285.062 454.008 285.106 454.314 285.192 454.603C285.279 454.887 285.409 455.139 285.582 455.36C285.76 455.58 285.981 455.754 286.245 455.882C286.509 456.006 286.817 456.068 287.168 456.068C287.514 456.068 287.817 456.006 288.077 455.882C288.341 455.754 288.56 455.58 288.733 455.36C288.907 455.139 289.036 454.887 289.123 454.603C289.214 454.314 289.26 454.008 289.26 453.684V453.546C289.26 453.225 289.214 452.923 289.123 452.638C289.036 452.35 288.904 452.096 288.727 451.876C288.553 451.651 288.335 451.475 288.07 451.347C287.811 451.219 287.505 451.155 287.154 451.155C286.808 451.155 286.503 451.219 286.238 451.347C285.979 451.475 285.76 451.651 285.582 451.876C285.409 452.096 285.279 452.35 285.192 452.638C285.106 452.923 285.062 453.225 285.062 453.546Z" fill="black"/>
<path d="M293.382 451.383V456.861H292.117V450.362H293.348L293.382 451.383ZM295.692 450.326L295.686 451.359C295.581 451.339 295.48 451.327 295.385 451.323C295.294 451.315 295.189 451.311 295.07 451.311C294.779 451.311 294.521 451.351 294.298 451.431C294.075 451.511 293.885 451.623 293.73 451.767C293.576 451.912 293.452 452.084 293.361 452.284C293.275 452.48 293.218 452.697 293.19 452.933L292.835 453.113C292.835 452.721 292.878 452.352 292.965 452.008C293.056 451.663 293.195 451.359 293.382 451.095C293.569 450.826 293.806 450.618 294.093 450.47C294.384 450.318 294.731 450.242 295.132 450.242C295.223 450.242 295.328 450.252 295.446 450.272C295.565 450.288 295.647 450.306 295.692 450.326Z" fill="black"/>
<path d="M298.119 451.653V456.861H296.848V450.362H298.051L298.119 451.653ZM297.859 453.365L297.271 453.347C297.276 452.903 297.342 452.492 297.47 452.116C297.597 451.735 297.786 451.405 298.037 451.125C298.288 450.844 298.6 450.628 298.974 450.476C299.347 450.32 299.78 450.242 300.272 450.242C300.619 450.242 300.938 450.286 301.229 450.374C301.521 450.458 301.774 450.592 301.988 450.776C302.202 450.96 302.369 451.197 302.487 451.485C302.606 451.773 302.665 452.122 302.665 452.53V456.861H301.4V452.584C301.4 452.244 301.334 451.972 301.202 451.767C301.075 451.563 300.892 451.415 300.655 451.323C300.418 451.227 300.14 451.179 299.821 451.179C299.448 451.179 299.135 451.237 298.885 451.353C298.634 451.469 298.434 451.629 298.283 451.834C298.133 452.038 298.023 452.272 297.955 452.536C297.891 452.797 297.859 453.073 297.859 453.365ZM302.651 452.753L301.804 452.981C301.808 452.624 301.874 452.282 302.002 451.954C302.134 451.625 302.323 451.333 302.569 451.077C302.82 450.82 303.128 450.618 303.492 450.47C303.857 450.318 304.274 450.242 304.743 450.242C305.14 450.242 305.491 450.288 305.796 450.38C306.106 450.472 306.366 450.614 306.575 450.806C306.789 450.995 306.951 451.237 307.061 451.533C307.17 451.83 307.225 452.182 307.225 452.59V456.861H305.953V452.578C305.953 452.214 305.887 451.932 305.755 451.731C305.627 451.527 305.445 451.385 305.208 451.305C304.976 451.221 304.698 451.179 304.374 451.179C304.096 451.179 303.85 451.221 303.636 451.305C303.422 451.389 303.242 451.505 303.096 451.653C302.95 451.797 302.838 451.964 302.761 452.152C302.688 452.34 302.651 452.54 302.651 452.753Z" fill="black"/>
<path d="M313.5 455.75V452.404C313.5 452.148 313.441 451.926 313.322 451.737C313.208 451.545 313.035 451.397 312.803 451.293C312.57 451.189 312.283 451.137 311.941 451.137C311.622 451.137 311.342 451.185 311.101 451.281C310.864 451.377 310.677 451.503 310.54 451.659C310.408 451.815 310.342 451.984 310.342 452.164H309.077C309.077 451.932 309.146 451.701 309.282 451.473C309.419 451.245 309.615 451.039 309.87 450.854C310.13 450.666 310.44 450.518 310.8 450.41C311.164 450.298 311.57 450.242 312.017 450.242C312.554 450.242 313.028 450.322 313.438 450.482C313.853 450.642 314.177 450.884 314.409 451.209C314.646 451.529 314.765 451.932 314.765 452.416V455.444C314.765 455.66 314.785 455.89 314.826 456.135C314.872 456.379 314.938 456.589 315.024 456.765V456.861H313.705C313.641 456.733 313.591 456.563 313.555 456.351C313.518 456.135 313.5 455.934 313.5 455.75ZM313.719 452.921L313.732 453.702H312.454C312.094 453.702 311.773 453.728 311.49 453.78C311.208 453.828 310.971 453.902 310.779 454.002C310.588 454.102 310.442 454.228 310.342 454.38C310.242 454.529 310.191 454.703 310.191 454.903C310.191 455.107 310.244 455.294 310.349 455.462C310.453 455.63 310.611 455.764 310.82 455.864C311.035 455.96 311.297 456.008 311.606 456.008C311.994 456.008 312.336 455.936 312.632 455.792C312.928 455.648 313.163 455.472 313.336 455.263C313.514 455.055 313.609 454.853 313.623 454.657L314.163 455.191C314.131 455.36 314.045 455.546 313.903 455.75C313.762 455.954 313.573 456.151 313.336 456.339C313.104 456.523 312.826 456.677 312.502 456.801C312.183 456.921 311.823 456.982 311.422 456.982C310.921 456.982 310.481 456.895 310.103 456.723C309.729 456.551 309.437 456.321 309.228 456.032C309.022 455.74 308.92 455.414 308.92 455.053C308.92 454.705 308.997 454.398 309.152 454.134C309.307 453.866 309.531 453.644 309.822 453.467C310.114 453.287 310.465 453.151 310.875 453.059C311.285 452.967 311.743 452.921 312.249 452.921H313.719Z" fill="black"/>
<path d="M319.851 450.362V451.215H315.852V450.362H319.851ZM317.205 448.782H318.47V455.251C318.47 455.472 318.508 455.638 318.586 455.75C318.663 455.862 318.764 455.936 318.887 455.972C319.01 456.008 319.142 456.026 319.283 456.026C319.388 456.026 319.497 456.018 319.611 456.002C319.73 455.982 319.819 455.966 319.878 455.954L319.885 456.861C319.785 456.889 319.652 456.915 319.488 456.939C319.329 456.967 319.135 456.982 318.907 456.982C318.597 456.982 318.312 456.927 318.053 456.819C317.793 456.711 317.586 456.531 317.431 456.279C317.28 456.022 317.205 455.678 317.205 455.245V448.782Z" fill="black"/>
</svg>
