<svg width="28" height="27" viewBox="0 0 28 27" fill="none" xmlns="http://www.w3.org/2000/svg">
<path d="M27.567 12.3884C27.753 12.5744 27.846 12.7883 27.846 13.0301C27.846 13.2719 27.753 13.4859 27.567 13.6719L14.5647 26.6741C14.3787 26.8601 14.1648 26.9531 13.923 26.9531C13.6812 26.9531 13.4673 26.8601 13.2812 26.6741L0.279018 13.6719C0.093006 13.4859 0 13.2719 0 13.0301C0 12.7883 0.093006 12.5744 0.279018 12.3884L1.67411 10.9933C1.86012 10.8073 2.07403 10.7143 2.31585 10.7143C2.55766 10.7143 2.77158 10.8073 2.95759 10.9933L13.923 21.9587L24.8884 10.9933C25.0744 10.8073 25.2883 10.7143 25.5301 10.7143C25.7719 10.7143 25.9859 10.8073 26.1719 10.9933L27.567 12.3884ZM27.567 1.67411C27.753 1.86012 27.846 2.07403 27.846 2.31585C27.846 2.55766 27.753 2.77158 27.567 2.95759L14.5647 15.9598C14.3787 16.1458 14.1648 16.2388 13.923 16.2388C13.6812 16.2388 13.4673 16.1458 13.2812 15.9598L0.279018 2.95759C0.093006 2.77158 0 2.55766 0 2.31585C0 2.07403 0.093006 1.86012 0.279018 1.67411L1.67411 0.279018C1.86012 0.0930065 2.07403 0 2.31585 0C2.55766 0 2.77158 0.0930065 2.95759 0.279018L13.923 11.2444L24.8884 0.279018C25.0744 0.0930065 25.2883 0 25.5301 0C25.7719 0 25.9859 0.0930065 26.1719 0.279018L27.567 1.67411Z" fill="#0B161E"/>
</svg>
