<svg width="490" height="555" viewBox="0 0 490 555" fill="none" xmlns="http://www.w3.org/2000/svg">
<path d="M489.715 101.66C484.793 227.739 481.522 296.426 470.871 400.098C461.861 439.742 452.33 456.145 421.404 467.335C298.241 502.491 211.842 530.638 111.649 554.625C70.8554 553.647 56.312 543.019 43.3376 519.237C21.1673 435.355 17.0209 343.51 0.937653 226.697C-1.2182 181.648 7.69913 163.352 43.3376 144.126C173.904 89.2973 363.693 14.37 363.693 14.37C363.693 14.37 399.971 -3.08555 421.404 1.39449C446.471 9.25527 457.376 17.9591 470.871 35.6028C486.439 56.421 490.516 70.8969 489.715 101.66Z" fill="white"/>
</svg>
