<svg width="445" height="470" viewBox="0 0 445 470" fill="none" xmlns="http://www.w3.org/2000/svg">
<path d="M0 0H444.855V470H0V0Z" fill="white"/>
<path d="M27.0734 39.3146H417.929V401.017H27.0734V39.3146Z"/>
<path d="M129.456 426.225H126.797V425.339H129.456C129.971 425.339 130.388 425.271 130.707 425.136C131.026 425 131.258 424.812 131.404 424.571C131.555 424.33 131.63 424.055 131.63 423.747C131.63 423.464 131.555 423.199 131.404 422.95C131.258 422.702 131.026 422.503 130.707 422.352C130.388 422.198 129.971 422.12 129.456 422.12H127.104V429.45H125.785V421.228H129.456C130.208 421.228 130.844 421.336 131.363 421.55C131.883 421.765 132.277 422.062 132.546 422.442C132.815 422.819 132.949 423.25 132.949 423.735C132.949 424.262 132.815 424.712 132.546 425.085C132.277 425.458 131.883 425.742 131.363 425.938C130.844 426.129 130.208 426.225 129.456 426.225Z" fill="black"/>
<path d="M133.995 426.463V426.333C133.995 425.892 134.073 425.484 134.228 425.107C134.382 424.727 134.606 424.398 134.897 424.119C135.189 423.837 135.542 423.619 135.957 423.464C136.372 423.306 136.837 423.227 137.352 423.227C137.871 423.227 138.338 423.306 138.753 423.464C139.172 423.619 139.528 423.837 139.819 424.119C140.116 424.398 140.341 424.727 140.496 425.107C140.651 425.484 140.729 425.892 140.729 426.333V426.463C140.729 426.903 140.651 427.311 140.496 427.688C140.341 428.064 140.116 428.394 139.819 428.676C139.528 428.955 139.174 429.173 138.76 429.331C138.35 429.485 137.885 429.563 137.365 429.563C136.846 429.563 136.379 429.485 135.964 429.331C135.549 429.173 135.194 428.955 134.897 428.676C134.606 428.394 134.382 428.064 134.228 427.688C134.073 427.311 133.995 426.903 133.995 426.463ZM135.26 426.333V426.463C135.26 426.768 135.303 427.056 135.39 427.327C135.476 427.594 135.606 427.831 135.779 428.038C135.957 428.245 136.178 428.409 136.442 428.529C136.707 428.646 137.014 428.704 137.365 428.704C137.712 428.704 138.015 428.646 138.274 428.529C138.539 428.409 138.757 428.245 138.931 428.038C139.104 427.831 139.234 427.594 139.32 427.327C139.411 427.056 139.457 426.768 139.457 426.463V426.333C139.457 426.032 139.411 425.747 139.32 425.48C139.234 425.209 139.102 424.97 138.924 424.763C138.751 424.552 138.532 424.387 138.268 424.266C138.008 424.146 137.702 424.085 137.352 424.085C137.005 424.085 136.7 424.146 136.436 424.266C136.176 424.387 135.957 424.552 135.779 424.763C135.606 424.97 135.476 425.209 135.39 425.48C135.303 425.747 135.26 426.032 135.26 426.333Z" fill="black"/>
<path d="M143.688 420.777V429.45H142.417V420.777H143.688Z" fill="black"/>
<path d="M150.08 428.405V425.26C150.08 425.019 150.021 424.81 149.902 424.633C149.788 424.452 149.615 424.313 149.383 424.215C149.15 424.117 148.863 424.068 148.521 424.068C148.202 424.068 147.922 424.114 147.681 424.204C147.444 424.294 147.257 424.413 147.12 424.56C146.988 424.707 146.922 424.865 146.922 425.034H145.657C145.657 424.816 145.726 424.599 145.862 424.385C145.999 424.17 146.195 423.976 146.45 423.803C146.71 423.626 147.02 423.487 147.38 423.385C147.744 423.28 148.15 423.227 148.597 423.227C149.134 423.227 149.608 423.302 150.019 423.453C150.433 423.604 150.757 423.831 150.989 424.136C151.226 424.437 151.345 424.816 151.345 425.271V428.117C151.345 428.32 151.365 428.537 151.406 428.766C151.452 428.996 151.518 429.194 151.604 429.359V429.45H150.285C150.221 429.329 150.171 429.169 150.135 428.97C150.098 428.766 150.08 428.578 150.08 428.405ZM150.299 425.746L150.312 426.48H149.034C148.674 426.48 148.353 426.504 148.07 426.553C147.788 426.598 147.551 426.668 147.359 426.762C147.168 426.856 147.022 426.975 146.922 427.118C146.822 427.257 146.771 427.421 146.771 427.609C146.771 427.801 146.824 427.976 146.929 428.134C147.034 428.292 147.191 428.418 147.4 428.512C147.615 428.603 147.877 428.648 148.187 428.648C148.574 428.648 148.916 428.58 149.212 428.445C149.508 428.309 149.743 428.143 149.916 427.948C150.094 427.752 150.189 427.562 150.203 427.377L150.743 427.88C150.711 428.038 150.625 428.213 150.483 428.405C150.342 428.597 150.153 428.781 149.916 428.958C149.684 429.132 149.406 429.276 149.082 429.393C148.763 429.506 148.403 429.563 148.002 429.563C147.501 429.563 147.061 429.482 146.683 429.32C146.309 429.158 146.017 428.941 145.808 428.67C145.603 428.396 145.5 428.089 145.5 427.75C145.5 427.423 145.577 427.135 145.732 426.886C145.887 426.634 146.111 426.425 146.402 426.259C146.694 426.09 147.045 425.962 147.455 425.875C147.865 425.789 148.323 425.746 148.829 425.746H150.299Z" fill="black"/>
<path d="M154.599 424.3V429.45H153.334V423.34H154.564L154.599 424.3ZM156.909 423.306L156.902 424.277C156.798 424.259 156.697 424.247 156.602 424.244C156.51 424.236 156.406 424.232 156.287 424.232C155.995 424.232 155.738 424.27 155.515 424.345C155.291 424.42 155.102 424.526 154.947 424.661C154.792 424.797 154.669 424.959 154.578 425.147C154.492 425.331 154.435 425.535 154.407 425.757L154.052 425.926C154.052 425.557 154.095 425.211 154.182 424.887C154.273 424.564 154.412 424.277 154.599 424.029C154.785 423.777 155.022 423.581 155.31 423.442C155.601 423.299 155.948 423.227 156.349 423.227C156.44 423.227 156.545 423.237 156.663 423.255C156.782 423.27 156.864 423.287 156.909 423.306Z" fill="black"/>
<path d="M157.606 426.463V426.333C157.606 425.892 157.684 425.484 157.839 425.107C157.994 424.727 158.217 424.398 158.509 424.119C158.8 423.837 159.154 423.619 159.568 423.464C159.983 423.306 160.448 423.227 160.963 423.227C161.482 423.227 161.95 423.306 162.364 423.464C162.784 423.619 163.139 423.837 163.431 424.119C163.727 424.398 163.952 424.727 164.107 425.107C164.262 425.484 164.34 425.892 164.34 426.333V426.463C164.34 426.903 164.262 427.311 164.107 427.688C163.952 428.064 163.727 428.394 163.431 428.676C163.139 428.955 162.786 429.173 162.371 429.331C161.961 429.485 161.496 429.563 160.977 429.563C160.457 429.563 159.99 429.485 159.575 429.331C159.16 429.173 158.805 428.955 158.509 428.676C158.217 428.394 157.994 428.064 157.839 427.688C157.684 427.311 157.606 426.903 157.606 426.463ZM158.871 426.333V426.463C158.871 426.768 158.914 427.056 159.001 427.327C159.088 427.594 159.217 427.831 159.391 428.038C159.568 428.245 159.789 428.409 160.054 428.529C160.318 428.646 160.626 428.704 160.977 428.704C161.323 428.704 161.626 428.646 161.886 428.529C162.15 428.409 162.369 428.245 162.542 428.038C162.715 427.831 162.845 427.594 162.932 427.327C163.023 427.056 163.068 426.768 163.068 426.463V426.333C163.068 426.032 163.023 425.747 162.932 425.48C162.845 425.209 162.713 424.97 162.535 424.763C162.362 424.552 162.143 424.387 161.879 424.266C161.619 424.146 161.314 424.085 160.963 424.085C160.617 424.085 160.311 424.146 160.047 424.266C159.787 424.387 159.568 424.552 159.391 424.763C159.217 424.97 159.088 425.209 159.001 425.48C158.914 425.747 158.871 426.032 158.871 426.333Z" fill="black"/>
<path d="M167.3 423.34V429.45H166.028V423.34H167.3ZM165.933 421.72C165.933 421.55 165.994 421.407 166.117 421.29C166.245 421.174 166.432 421.115 166.678 421.115C166.919 421.115 167.104 421.174 167.231 421.29C167.364 421.407 167.43 421.55 167.43 421.72C167.43 421.881 167.364 422.021 167.231 422.137C167.104 422.25 166.919 422.307 166.678 422.307C166.432 422.307 166.245 422.25 166.117 422.137C165.994 422.021 165.933 421.881 165.933 421.72Z" fill="black"/>
<path d="M173.992 428.264V420.777H175.264V429.45H174.102L173.992 428.264ZM169.016 426.463V426.344C169.016 425.877 169.084 425.454 169.221 425.074C169.362 424.69 169.56 424.36 169.815 424.085C170.075 423.811 170.383 423.6 170.738 423.453C171.098 423.302 171.499 423.227 171.941 423.227C172.406 423.227 172.812 423.295 173.158 423.43C173.509 423.562 173.805 423.756 174.047 424.012C174.293 424.264 174.487 424.569 174.628 424.927C174.769 425.284 174.867 425.689 174.922 426.141V426.66C174.872 427.108 174.774 427.511 174.628 427.869C174.487 428.226 174.293 428.531 174.047 428.783C173.805 429.036 173.509 429.229 173.158 429.365C172.807 429.497 172.397 429.563 171.928 429.563C171.495 429.563 171.098 429.485 170.738 429.331C170.383 429.177 170.075 428.96 169.815 428.682C169.56 428.403 169.362 428.076 169.221 427.699C169.084 427.319 169.016 426.907 169.016 426.463ZM170.287 426.344V426.463C170.287 426.768 170.324 427.054 170.396 427.321C170.474 427.588 170.592 427.823 170.752 428.027C170.911 428.23 171.114 428.39 171.36 428.507C171.606 428.62 171.9 428.676 172.242 428.676C172.661 428.676 173.006 428.603 173.274 428.456C173.548 428.309 173.767 428.115 173.931 427.874C174.095 427.633 174.222 427.372 174.313 427.089V425.729C174.259 425.522 174.179 425.322 174.074 425.13C173.974 424.934 173.842 424.761 173.678 424.611C173.518 424.456 173.32 424.334 173.083 424.244C172.851 424.153 172.575 424.108 172.256 424.108C171.91 424.108 171.611 424.168 171.36 424.289C171.114 424.405 170.911 424.567 170.752 424.774C170.592 424.978 170.474 425.215 170.396 425.486C170.324 425.753 170.287 426.039 170.287 426.344Z" fill="black"/>
<path d="M182.312 421.228V429.45H180.992V421.228H182.312Z" fill="black"/>
<path d="M185.777 424.554V429.45H184.506V423.34H185.709L185.777 424.554ZM185.518 426.163L184.93 426.146C184.934 425.729 185 425.343 185.128 424.989C185.256 424.631 185.445 424.321 185.695 424.057C185.946 423.794 186.258 423.59 186.632 423.447C187.006 423.301 187.438 423.227 187.931 423.227C188.277 423.227 188.596 423.269 188.888 423.351C189.179 423.43 189.432 423.557 189.646 423.73C189.861 423.903 190.027 424.125 190.146 424.396C190.264 424.667 190.323 424.995 190.323 425.378V429.45H189.059V425.429C189.059 425.109 188.993 424.853 188.86 424.661C188.733 424.469 188.55 424.33 188.313 424.244C188.076 424.153 187.799 424.108 187.479 424.108C187.106 424.108 186.794 424.163 186.543 424.272C186.292 424.381 186.092 424.531 185.941 424.723C185.791 424.915 185.682 425.136 185.613 425.384C185.549 425.629 185.518 425.889 185.518 426.163ZM190.31 425.587L189.462 425.802C189.466 425.467 189.533 425.145 189.66 424.836C189.792 424.528 189.981 424.253 190.228 424.012C190.478 423.771 190.786 423.581 191.15 423.442C191.515 423.299 191.932 423.227 192.401 423.227C192.798 423.227 193.149 423.27 193.454 423.357C193.764 423.444 194.024 423.577 194.233 423.758C194.448 423.935 194.609 424.163 194.719 424.441C194.828 424.72 194.883 425.051 194.883 425.435V429.45H193.611V425.424C193.611 425.081 193.545 424.816 193.413 424.628C193.285 424.436 193.103 424.302 192.866 424.227C192.634 424.148 192.356 424.108 192.032 424.108C191.754 424.108 191.508 424.148 191.294 424.227C191.08 424.306 190.9 424.415 190.754 424.554C190.608 424.69 190.496 424.846 190.419 425.023C190.346 425.2 190.31 425.388 190.31 425.587Z" fill="black"/>
<path d="M201.158 428.405V425.26C201.158 425.019 201.099 424.81 200.98 424.633C200.867 424.452 200.693 424.313 200.461 424.215C200.229 424.117 199.941 424.068 199.6 424.068C199.281 424.068 199 424.114 198.759 424.204C198.522 424.294 198.335 424.413 198.198 424.56C198.066 424.707 198 424.865 198 425.034H196.735C196.735 424.816 196.804 424.599 196.94 424.385C197.077 424.17 197.273 423.976 197.528 423.803C197.788 423.626 198.098 423.487 198.458 423.385C198.823 423.28 199.228 423.227 199.675 423.227C200.213 423.227 200.687 423.302 201.097 423.453C201.511 423.604 201.835 423.831 202.067 424.136C202.304 424.437 202.423 424.816 202.423 425.271V428.117C202.423 428.32 202.443 428.537 202.484 428.766C202.53 428.996 202.596 429.194 202.683 429.359V429.45H201.363C201.299 429.329 201.249 429.169 201.213 428.97C201.176 428.766 201.158 428.578 201.158 428.405ZM201.377 425.746L201.391 426.48H200.112C199.752 426.48 199.431 426.504 199.148 426.553C198.866 426.598 198.629 426.668 198.438 426.762C198.246 426.856 198.1 426.975 198 427.118C197.9 427.257 197.85 427.421 197.85 427.609C197.85 427.801 197.902 427.976 198.007 428.134C198.112 428.292 198.269 428.418 198.479 428.512C198.693 428.603 198.955 428.648 199.265 428.648C199.652 428.648 199.994 428.58 200.29 428.445C200.586 428.309 200.821 428.143 200.994 427.948C201.172 427.752 201.268 427.562 201.281 427.377L201.821 427.88C201.789 428.038 201.703 428.213 201.562 428.405C201.42 428.597 201.231 428.781 200.994 428.958C200.762 429.132 200.484 429.276 200.16 429.393C199.841 429.506 199.481 429.563 199.08 429.563C198.579 429.563 198.139 429.482 197.761 429.32C197.387 429.158 197.095 428.941 196.886 428.67C196.681 428.396 196.578 428.089 196.578 427.75C196.578 427.423 196.656 427.135 196.811 426.886C196.965 426.634 197.189 426.425 197.48 426.259C197.772 426.09 198.123 425.962 198.533 425.875C198.943 425.789 199.401 425.746 199.907 425.746H201.377Z" fill="black"/>
<path d="M209.204 423.34H210.353V429.32C210.353 429.858 210.22 430.317 209.956 430.698C209.692 431.078 209.323 431.366 208.849 431.561C208.379 431.761 207.837 431.861 207.222 431.861C206.966 431.861 206.666 431.827 206.319 431.759C205.978 431.695 205.64 431.584 205.308 431.426C204.979 431.272 204.704 431.063 204.48 430.799L205.144 430.178C205.453 430.487 205.777 430.701 206.114 430.822C206.456 430.942 206.793 431.002 207.126 431.002C207.527 431.002 207.873 430.94 208.165 430.816C208.457 430.692 208.682 430.507 208.842 430.263C209.006 430.022 209.088 429.724 209.088 429.371V424.684L209.204 423.34ZM204.111 426.463V426.344C204.111 425.877 204.177 425.454 204.31 425.074C204.446 424.69 204.64 424.36 204.891 424.085C205.146 423.811 205.453 423.6 205.813 423.453C206.174 423.302 206.579 423.227 207.03 423.227C207.495 423.227 207.901 423.295 208.247 423.43C208.598 423.562 208.894 423.756 209.136 424.012C209.382 424.264 209.576 424.569 209.717 424.927C209.858 425.284 209.956 425.689 210.011 426.141V426.66C209.961 427.108 209.863 427.511 209.717 427.869C209.576 428.226 209.382 428.531 209.136 428.783C208.894 429.036 208.598 429.229 208.247 429.365C207.896 429.497 207.486 429.563 207.017 429.563C206.575 429.563 206.174 429.485 205.813 429.331C205.458 429.177 205.153 428.96 204.897 428.682C204.642 428.403 204.446 428.076 204.31 427.699C204.177 427.319 204.111 426.907 204.111 426.463ZM205.376 426.344V426.463C205.376 426.768 205.412 427.054 205.485 427.321C205.563 427.588 205.679 427.823 205.834 428.027C205.993 428.23 206.196 428.39 206.442 428.507C206.688 428.62 206.982 428.676 207.324 428.676C207.743 428.676 208.09 428.603 208.363 428.456C208.637 428.309 208.853 428.115 209.013 427.874C209.177 427.633 209.304 427.372 209.396 427.089V425.729C209.345 425.522 209.268 425.322 209.163 425.13C209.063 424.934 208.931 424.761 208.767 424.611C208.607 424.456 208.409 424.334 208.172 424.244C207.935 424.153 207.657 424.108 207.338 424.108C206.992 424.108 206.693 424.168 206.442 424.289C206.196 424.405 205.993 424.567 205.834 424.774C205.679 424.978 205.563 425.215 205.485 425.486C205.412 425.753 205.376 426.039 205.376 426.344Z" fill="black"/>
<path d="M215.343 429.563C214.828 429.563 214.361 429.491 213.941 429.348C213.527 429.201 213.169 428.996 212.868 428.733C212.572 428.469 212.344 428.157 212.185 427.795C212.025 427.434 211.945 427.039 211.945 426.609V426.372C211.945 425.875 212.034 425.433 212.212 425.045C212.39 424.654 212.631 424.323 212.937 424.052C213.242 423.781 213.588 423.575 213.976 423.436C214.363 423.297 214.764 423.227 215.179 423.227C215.707 423.227 216.163 423.302 216.546 423.453C216.933 423.604 217.25 423.814 217.496 424.085C217.742 424.353 217.924 424.669 218.043 425.034C218.161 425.395 218.221 425.791 218.221 426.22V426.688H212.697V425.836H216.956V425.757C216.938 425.486 216.869 425.222 216.751 424.966C216.637 424.71 216.455 424.499 216.204 424.334C215.953 424.168 215.612 424.085 215.179 424.085C214.892 424.085 214.627 424.136 214.386 424.238C214.144 424.336 213.937 424.483 213.764 424.678C213.59 424.874 213.456 425.113 213.36 425.395C213.265 425.678 213.217 426.003 213.217 426.372V426.609C213.217 426.899 213.265 427.172 213.36 427.428C213.461 427.68 213.604 427.902 213.791 428.094C213.982 428.286 214.213 428.437 214.481 428.546C214.755 428.655 215.065 428.71 215.411 428.71C215.858 428.71 216.236 428.635 216.546 428.484C216.856 428.334 217.127 428.132 217.359 427.88L218.125 428.382C217.965 428.582 217.763 428.772 217.517 428.953C217.271 429.133 216.967 429.28 216.607 429.393C216.252 429.506 215.83 429.563 215.343 429.563Z" fill="black"/>
<path d="M224.1 421.228L219.95 430.155H218.863L223.02 421.228H224.1Z" fill="black"/>
<path d="M230.977 427.372C230.977 427.18 230.94 427.01 230.867 426.864C230.799 426.713 230.676 426.577 230.498 426.457C230.325 426.337 230.083 426.222 229.773 426.113C229.468 426.003 229.081 425.892 228.611 425.779C228.119 425.659 227.675 425.525 227.278 425.378C226.882 425.228 226.542 425.057 226.26 424.865C225.977 424.673 225.761 424.452 225.61 424.204C225.46 423.956 225.385 423.671 225.385 423.351C225.385 423.031 225.465 422.736 225.624 422.465C225.784 422.194 226.011 421.959 226.308 421.759C226.608 421.556 226.966 421.398 227.381 421.285C227.796 421.172 228.258 421.115 228.769 421.115C229.516 421.115 230.149 421.234 230.669 421.471C231.193 421.704 231.592 422.011 231.865 422.391C232.139 422.768 232.275 423.171 232.275 423.6H230.963C230.963 423.291 230.883 423.018 230.724 422.781C230.564 422.54 230.323 422.352 229.999 422.216C229.675 422.077 229.265 422.007 228.769 422.007C228.299 422.007 227.912 422.066 227.606 422.183C227.301 422.299 227.073 422.457 226.923 422.657C226.777 422.856 226.704 423.084 226.704 423.34C226.704 423.513 226.747 423.671 226.834 423.814C226.925 423.954 227.064 424.084 227.251 424.204C227.442 424.324 227.684 424.436 227.976 424.537C228.272 424.639 228.625 424.737 229.035 424.831C229.6 424.963 230.088 425.109 230.498 425.271C230.908 425.433 231.245 425.616 231.51 425.819C231.779 426.018 231.977 426.246 232.104 426.502C232.237 426.754 232.303 427.04 232.303 427.36C232.303 427.695 232.221 427.998 232.057 428.27C231.893 428.541 231.658 428.772 231.353 428.964C231.047 429.156 230.68 429.305 230.252 429.41C229.828 429.512 229.354 429.563 228.83 429.563C228.37 429.563 227.916 429.51 227.47 429.404C227.028 429.299 226.624 429.141 226.26 428.93C225.9 428.719 225.61 428.46 225.392 428.151C225.177 427.838 225.07 427.477 225.07 427.067H226.383C226.383 427.349 226.449 427.592 226.581 427.795C226.713 427.995 226.893 428.16 227.121 428.292C227.354 428.424 227.616 428.522 227.907 428.586C228.203 428.646 228.511 428.676 228.83 428.676C229.29 428.676 229.68 428.623 229.999 428.518C230.318 428.413 230.56 428.262 230.724 428.066C230.892 427.871 230.977 427.639 230.977 427.372Z" fill="black"/>
<path d="M235.058 424.515V431.799H233.786V423.34H234.948L235.058 424.515ZM240.041 426.344V426.463C240.041 426.907 239.977 427.319 239.85 427.699C239.722 428.076 239.535 428.403 239.289 428.682C239.048 428.96 238.749 429.177 238.394 429.331C238.038 429.485 237.63 429.563 237.17 429.563C236.701 429.563 236.286 429.499 235.926 429.371C235.566 429.243 235.26 429.056 235.01 428.812C234.759 428.567 234.559 428.273 234.408 427.931C234.262 427.588 234.162 427.202 234.107 426.773V426.141C234.162 425.689 234.265 425.284 234.415 424.927C234.565 424.569 234.764 424.264 235.01 424.012C235.26 423.756 235.563 423.562 235.919 423.43C236.274 423.295 236.685 423.227 237.149 423.227C237.614 423.227 238.027 423.302 238.387 423.453C238.747 423.6 239.05 423.811 239.296 424.085C239.542 424.36 239.727 424.69 239.85 425.074C239.977 425.454 240.041 425.877 240.041 426.344ZM238.77 426.463V426.344C238.77 426.039 238.731 425.753 238.653 425.486C238.576 425.215 238.455 424.978 238.291 424.774C238.132 424.567 237.926 424.405 237.676 424.289C237.425 424.168 237.127 424.108 236.78 424.108C236.461 424.108 236.183 424.153 235.946 424.244C235.714 424.334 235.516 424.456 235.352 424.611C235.188 424.761 235.053 424.934 234.948 425.13C234.848 425.322 234.773 425.522 234.723 425.729V427.191C234.814 427.455 234.941 427.703 235.105 427.936C235.27 428.166 235.488 428.352 235.762 428.495C236.035 428.635 236.379 428.704 236.794 428.704C237.136 428.704 237.43 428.646 237.676 428.529C237.926 428.409 238.132 428.245 238.291 428.038C238.455 427.831 238.576 427.594 238.653 427.327C238.731 427.056 238.77 426.768 238.77 426.463Z" fill="black"/>
<path d="M244.724 429.563C244.209 429.563 243.742 429.491 243.322 429.348C242.908 429.201 242.55 428.996 242.249 428.733C241.953 428.469 241.725 428.157 241.565 427.795C241.406 427.434 241.326 427.039 241.326 426.609V426.372C241.326 425.875 241.415 425.433 241.593 425.045C241.771 424.654 242.012 424.323 242.317 424.052C242.623 423.781 242.969 423.575 243.356 423.436C243.744 423.297 244.145 423.227 244.56 423.227C245.088 423.227 245.544 423.302 245.927 423.453C246.314 423.604 246.631 423.814 246.877 424.085C247.123 424.353 247.305 424.669 247.424 425.034C247.542 425.395 247.602 425.791 247.602 426.22V426.688H242.078V425.836H246.337V425.757C246.319 425.486 246.25 425.222 246.132 424.966C246.018 424.71 245.836 424.499 245.585 424.334C245.334 424.168 244.993 424.085 244.56 424.085C244.272 424.085 244.008 424.136 243.767 424.238C243.525 424.336 243.318 424.483 243.145 424.678C242.971 424.874 242.837 425.113 242.741 425.395C242.646 425.678 242.598 426.003 242.598 426.372V426.609C242.598 426.899 242.646 427.172 242.741 427.428C242.841 427.68 242.985 427.902 243.172 428.094C243.363 428.286 243.593 428.437 243.862 428.546C244.136 428.655 244.446 428.71 244.792 428.71C245.239 428.71 245.617 428.635 245.927 428.484C246.237 428.334 246.508 428.132 246.74 427.88L247.506 428.382C247.346 428.582 247.144 428.772 246.897 428.953C246.651 429.133 246.348 429.28 245.988 429.393C245.633 429.506 245.211 429.563 244.724 429.563Z" fill="black"/>
<path d="M252.038 428.704C252.339 428.704 252.617 428.653 252.872 428.552C253.127 428.45 253.337 428.311 253.501 428.134C253.665 427.953 253.758 427.748 253.781 427.519H254.984C254.962 427.88 254.813 428.217 254.54 428.529C254.271 428.838 253.918 429.088 253.48 429.28C253.043 429.468 252.562 429.563 252.038 429.563C251.482 429.563 250.997 429.482 250.582 429.32C250.172 429.158 249.83 428.936 249.557 428.653C249.288 428.371 249.085 428.047 248.948 427.682C248.816 427.313 248.75 426.924 248.75 426.513V426.276C248.75 425.866 248.816 425.478 248.948 425.113C249.085 424.744 249.288 424.419 249.557 424.136C249.83 423.854 250.172 423.632 250.582 423.47C250.997 423.308 251.482 423.227 252.038 423.227C252.617 423.227 253.123 423.325 253.556 423.521C253.989 423.713 254.328 423.976 254.574 424.311C254.825 424.643 254.962 425.019 254.984 425.441H253.781C253.758 425.188 253.672 424.961 253.521 424.757C253.376 424.554 253.175 424.392 252.92 424.272C252.669 424.148 252.375 424.085 252.038 424.085C251.651 424.085 251.325 424.149 251.061 424.277C250.801 424.402 250.593 424.571 250.438 424.786C250.288 424.996 250.179 425.232 250.11 425.491C250.047 425.747 250.015 426.009 250.015 426.276V426.513C250.015 426.781 250.047 427.044 250.11 427.304C250.174 427.564 250.281 427.799 250.432 428.01C250.587 428.221 250.794 428.39 251.054 428.518C251.318 428.642 251.646 428.704 252.038 428.704Z" fill="black"/>
<path d="M259.503 423.34V424.142H255.504V423.34H259.503ZM256.857 421.855H258.122V427.936C258.122 428.143 258.161 428.3 258.238 428.405C258.316 428.51 258.416 428.58 258.539 428.614C258.662 428.648 258.794 428.665 258.936 428.665C259.04 428.665 259.15 428.657 259.264 428.642C259.382 428.623 259.471 428.608 259.53 428.597L259.537 429.45C259.437 429.476 259.305 429.5 259.141 429.523C258.981 429.549 258.787 429.563 258.56 429.563C258.25 429.563 257.965 429.512 257.705 429.41C257.445 429.308 257.238 429.139 257.083 428.902C256.933 428.661 256.857 428.337 256.857 427.931V421.855Z" fill="black"/>
<path d="M262.251 424.3V429.45H260.986V423.34H262.217L262.251 424.3ZM264.562 423.306L264.555 424.277C264.45 424.259 264.35 424.247 264.254 424.244C264.163 424.236 264.058 424.232 263.939 424.232C263.648 424.232 263.39 424.27 263.167 424.345C262.944 424.42 262.755 424.526 262.6 424.661C262.445 424.797 262.322 424.959 262.23 425.147C262.144 425.331 262.087 425.535 262.06 425.757L261.704 425.926C261.704 425.557 261.747 425.211 261.834 424.887C261.925 424.564 262.064 424.277 262.251 424.029C262.438 423.777 262.675 423.581 262.962 423.442C263.254 423.299 263.6 423.227 264.001 423.227C264.092 423.227 264.197 423.237 264.315 423.255C264.434 423.27 264.516 423.287 264.562 423.306Z" fill="black"/>
<path d="M269.818 428.405V425.26C269.818 425.019 269.759 424.81 269.641 424.633C269.527 424.452 269.354 424.313 269.121 424.215C268.889 424.117 268.602 424.068 268.26 424.068C267.941 424.068 267.66 424.114 267.419 424.204C267.182 424.294 266.995 424.413 266.858 424.56C266.726 424.707 266.66 424.865 266.66 425.034H265.396C265.396 424.816 265.464 424.599 265.601 424.385C265.737 424.17 265.933 423.976 266.188 423.803C266.448 423.626 266.758 423.487 267.118 423.385C267.483 423.28 267.888 423.227 268.335 423.227C268.873 423.227 269.347 423.302 269.757 423.453C270.172 423.604 270.495 423.831 270.728 424.136C270.965 424.437 271.083 424.816 271.083 425.271V428.117C271.083 428.32 271.104 428.537 271.145 428.766C271.19 428.996 271.256 429.194 271.343 429.359V429.45H270.023C269.96 429.329 269.91 429.169 269.873 428.97C269.837 428.766 269.818 428.578 269.818 428.405ZM270.037 425.746L270.051 426.48H268.772C268.412 426.48 268.091 426.504 267.809 426.553C267.526 426.598 267.289 426.668 267.098 426.762C266.906 426.856 266.76 426.975 266.66 427.118C266.56 427.257 266.51 427.421 266.51 427.609C266.51 427.801 266.562 427.976 266.667 428.134C266.772 428.292 266.929 428.418 267.139 428.512C267.353 428.603 267.615 428.648 267.925 428.648C268.312 428.648 268.654 428.58 268.95 428.445C269.246 428.309 269.481 428.143 269.654 427.948C269.832 427.752 269.928 427.562 269.941 427.377L270.481 427.88C270.45 428.038 270.363 428.213 270.222 428.405C270.08 428.597 269.891 428.781 269.654 428.958C269.422 429.132 269.144 429.276 268.82 429.393C268.501 429.506 268.141 429.563 267.74 429.563C267.239 429.563 266.799 429.482 266.421 429.32C266.047 429.158 265.756 428.941 265.546 428.67C265.341 428.396 265.238 428.089 265.238 427.75C265.238 427.423 265.316 427.135 265.471 426.886C265.626 426.634 265.849 426.425 266.141 426.259C266.432 426.09 266.783 425.962 267.193 425.875C267.604 425.789 268.062 425.746 268.567 425.746H270.037Z" fill="black"/>
<path d="M278.056 421.228V429.45H276.736V421.228H278.056ZM282.226 424.927V425.819H277.769V424.927H282.226ZM282.902 421.228V422.12H277.769V421.228H282.902Z" fill="black"/>
<path d="M283.798 426.463V426.333C283.798 425.892 283.875 425.484 284.03 425.107C284.185 424.727 284.409 424.398 284.7 424.119C284.992 423.837 285.345 423.619 285.76 423.464C286.174 423.306 286.639 423.227 287.154 423.227C287.674 423.227 288.141 423.306 288.556 423.464C288.975 423.619 289.33 423.837 289.622 424.119C289.918 424.398 290.144 424.727 290.299 425.107C290.454 425.484 290.531 425.892 290.531 426.333V426.463C290.531 426.903 290.454 427.311 290.299 427.688C290.144 428.064 289.918 428.394 289.622 428.676C289.33 428.955 288.977 429.173 288.562 429.331C288.152 429.485 287.688 429.563 287.168 429.563C286.648 429.563 286.181 429.485 285.767 429.331C285.352 429.173 284.996 428.955 284.7 428.676C284.409 428.394 284.185 428.064 284.03 427.688C283.875 427.311 283.798 426.903 283.798 426.463ZM285.062 426.333V426.463C285.062 426.768 285.106 427.056 285.192 427.327C285.279 427.594 285.409 427.831 285.582 428.038C285.76 428.245 285.981 428.409 286.245 428.529C286.509 428.646 286.817 428.704 287.168 428.704C287.514 428.704 287.817 428.646 288.077 428.529C288.341 428.409 288.56 428.245 288.733 428.038C288.907 427.831 289.036 427.594 289.123 427.327C289.214 427.056 289.26 426.768 289.26 426.463V426.333C289.26 426.032 289.214 425.747 289.123 425.48C289.036 425.209 288.904 424.97 288.727 424.763C288.553 424.552 288.335 424.387 288.07 424.266C287.811 424.146 287.505 424.085 287.154 424.085C286.808 424.085 286.503 424.146 286.238 424.266C285.979 424.387 285.76 424.552 285.582 424.763C285.409 424.97 285.279 425.209 285.192 425.48C285.106 425.747 285.062 426.032 285.062 426.333Z" fill="black"/>
<path d="M293.382 424.3V429.45H292.117V423.34H293.348L293.382 424.3ZM295.692 423.306L295.686 424.277C295.581 424.259 295.48 424.247 295.385 424.244C295.294 424.236 295.189 424.232 295.07 424.232C294.779 424.232 294.521 424.27 294.298 424.345C294.075 424.42 293.885 424.526 293.73 424.661C293.576 424.797 293.452 424.959 293.361 425.147C293.275 425.331 293.218 425.535 293.19 425.757L292.835 425.926C292.835 425.557 292.878 425.211 292.965 424.887C293.056 424.564 293.195 424.277 293.382 424.029C293.569 423.777 293.806 423.581 294.093 423.442C294.384 423.299 294.731 423.227 295.132 423.227C295.223 423.227 295.328 423.237 295.446 423.255C295.565 423.27 295.647 423.287 295.692 423.306Z" fill="black"/>
<path d="M298.119 424.554V429.45H296.848V423.34H298.051L298.119 424.554ZM297.859 426.163L297.271 426.146C297.276 425.729 297.342 425.343 297.47 424.989C297.597 424.631 297.786 424.321 298.037 424.057C298.288 423.794 298.6 423.59 298.974 423.447C299.347 423.301 299.78 423.227 300.272 423.227C300.619 423.227 300.938 423.269 301.229 423.351C301.521 423.43 301.774 423.557 301.988 423.73C302.202 423.903 302.369 424.125 302.487 424.396C302.606 424.667 302.665 424.995 302.665 425.378V429.45H301.4V425.429C301.4 425.109 301.334 424.853 301.202 424.661C301.075 424.469 300.892 424.33 300.655 424.244C300.418 424.153 300.14 424.108 299.821 424.108C299.448 424.108 299.135 424.163 298.885 424.272C298.634 424.381 298.434 424.531 298.283 424.723C298.133 424.915 298.023 425.136 297.955 425.384C297.891 425.629 297.859 425.889 297.859 426.163ZM302.651 425.587L301.804 425.802C301.808 425.467 301.874 425.145 302.002 424.836C302.134 424.528 302.323 424.253 302.569 424.012C302.82 423.771 303.128 423.581 303.492 423.442C303.857 423.299 304.274 423.227 304.743 423.227C305.14 423.227 305.491 423.27 305.796 423.357C306.106 423.444 306.366 423.577 306.575 423.758C306.789 423.935 306.951 424.163 307.061 424.441C307.17 424.72 307.225 425.051 307.225 425.435V429.45H305.953V425.424C305.953 425.081 305.887 424.816 305.755 424.628C305.627 424.436 305.445 424.302 305.208 424.227C304.976 424.148 304.698 424.108 304.374 424.108C304.096 424.108 303.85 424.148 303.636 424.227C303.422 424.306 303.242 424.415 303.096 424.554C302.95 424.69 302.838 424.846 302.761 425.023C302.688 425.2 302.651 425.388 302.651 425.587Z" fill="black"/>
<path d="M313.5 428.405V425.26C313.5 425.019 313.441 424.81 313.322 424.633C313.208 424.452 313.035 424.313 312.803 424.215C312.57 424.117 312.283 424.068 311.941 424.068C311.622 424.068 311.342 424.114 311.101 424.204C310.864 424.294 310.677 424.413 310.54 424.56C310.408 424.707 310.342 424.865 310.342 425.034H309.077C309.077 424.816 309.146 424.599 309.282 424.385C309.419 424.17 309.615 423.976 309.87 423.803C310.13 423.626 310.44 423.487 310.8 423.385C311.164 423.28 311.57 423.227 312.017 423.227C312.554 423.227 313.028 423.302 313.438 423.453C313.853 423.604 314.177 423.831 314.409 424.136C314.646 424.437 314.765 424.816 314.765 425.271V428.117C314.765 428.32 314.785 428.537 314.826 428.766C314.872 428.996 314.938 429.194 315.024 429.359V429.45H313.705C313.641 429.329 313.591 429.169 313.555 428.97C313.518 428.766 313.5 428.578 313.5 428.405ZM313.719 425.746L313.732 426.48H312.454C312.094 426.48 311.773 426.504 311.49 426.553C311.208 426.598 310.971 426.668 310.779 426.762C310.588 426.856 310.442 426.975 310.342 427.118C310.242 427.257 310.191 427.421 310.191 427.609C310.191 427.801 310.244 427.976 310.349 428.134C310.453 428.292 310.611 428.418 310.82 428.512C311.035 428.603 311.297 428.648 311.606 428.648C311.994 428.648 312.336 428.58 312.632 428.445C312.928 428.309 313.163 428.143 313.336 427.948C313.514 427.752 313.609 427.562 313.623 427.377L314.163 427.88C314.131 428.038 314.045 428.213 313.903 428.405C313.762 428.597 313.573 428.781 313.336 428.958C313.104 429.132 312.826 429.276 312.502 429.393C312.183 429.506 311.823 429.563 311.422 429.563C310.921 429.563 310.481 429.482 310.103 429.32C309.729 429.158 309.437 428.941 309.228 428.67C309.022 428.396 308.92 428.089 308.92 427.75C308.92 427.423 308.997 427.135 309.152 426.886C309.307 426.634 309.531 426.425 309.822 426.259C310.114 426.09 310.465 425.962 310.875 425.875C311.285 425.789 311.743 425.746 312.249 425.746H313.719Z" fill="black"/>
<path d="M319.851 423.34V424.142H315.852V423.34H319.851ZM317.205 421.855H318.47V427.936C318.47 428.143 318.508 428.3 318.586 428.405C318.663 428.51 318.764 428.58 318.887 428.614C319.01 428.648 319.142 428.665 319.283 428.665C319.388 428.665 319.497 428.657 319.611 428.642C319.73 428.623 319.819 428.608 319.878 428.597L319.885 429.45C319.785 429.476 319.652 429.5 319.488 429.523C319.329 429.549 319.135 429.563 318.907 429.563C318.597 429.563 318.312 429.512 318.053 429.41C317.793 429.308 317.586 429.139 317.431 428.902C317.28 428.661 317.205 428.337 317.205 427.931V421.855Z" fill="black"/>
</svg>
